<svg width="20" height="20" viewBox="0 0 20 20" fill="none" xmlns="http://www.w3.org/2000/svg">
<path d="M5.30473 6.41705H3.73891C3.57672 6.41705 3.44531 6.54846 3.44531 6.71065C3.44531 6.87284 3.57672 7.00424 3.73891 7.00424H5.30473C5.46692 7.00424 5.59832 6.87284 5.59832 6.71065C5.59832 6.54846 5.46692 6.41705 5.30473 6.41705Z" fill="white"/>
<path d="M9.37579 6.41705H6.55727C6.39508 6.41705 6.26367 6.54846 6.26367 6.71065C6.26367 6.87284 6.39508 7.00424 6.55727 7.00424H9.37579C9.53798 7.00424 9.66938 6.87284 9.66938 6.71065C9.66938 6.54846 9.53798 6.41705 9.37579 6.41705Z" fill="white"/>
<path d="M6.55739 8.92261H3.73891C3.57672 8.92261 3.44531 9.05401 3.44531 9.2162C3.44531 9.37839 3.57672 9.5098 3.73891 9.5098H6.55739C6.71958 9.5098 6.85098 9.37839 6.85098 9.2162C6.85098 9.05401 6.71958 8.92261 6.55739 8.92261Z" fill="white"/>
<path d="M4.99156 10.4885H3.73891C3.57672 10.4885 3.44531 10.6199 3.44531 10.7821C3.44531 10.9442 3.57672 11.0757 3.73891 11.0757H4.99156C5.15375 11.0757 5.28516 10.9442 5.28516 10.7821C5.28516 10.6199 5.15375 10.4885 4.99156 10.4885Z" fill="white"/>
<path d="M8.74911 10.4885H6.24379C6.0816 10.4885 5.9502 10.6199 5.9502 10.7821C5.9502 10.9442 6.0816 11.0757 6.24379 11.0757H8.74911C8.91129 11.0757 9.0427 10.9442 9.0427 10.7821C9.0427 10.6199 8.91129 10.4885 8.74911 10.4885Z" fill="white"/>
<path d="M8.43638 12.0544H3.73891C3.57672 12.0544 3.44531 12.1858 3.44531 12.348C3.44531 12.5102 3.57672 12.6416 3.73891 12.6416H8.43642C8.5986 12.6416 8.73001 12.5102 8.73001 12.348C8.73001 12.1858 8.59856 12.0544 8.43638 12.0544Z" fill="white"/>
<path d="M9.06188 8.92261H7.80922C7.64703 8.92261 7.51562 9.05401 7.51562 9.2162C7.51562 9.37839 7.64703 9.5098 7.80922 9.5098H9.06188C9.22407 9.5098 9.35547 9.37839 9.35547 9.2162C9.35547 9.05401 9.22407 8.92261 9.06188 8.92261Z" fill="white"/>
<path d="M19.7341 2.875L18.8483 1.98926C18.4937 1.63468 17.902 1.63468 17.5473 1.98926L14.9049 4.63168C14.6927 4.03071 14.1193 3.59883 13.4466 3.59883H11.2675C11.1053 3.59883 10.9739 3.73024 10.9739 3.89242C10.9739 4.05461 11.1053 4.18602 11.2675 4.18602H13.4466C13.9708 4.18602 14.3979 4.60879 14.4053 5.13122L10.2397 9.29685C10.2109 9.32564 10.188 9.36115 10.1733 9.39907L9.06614 12.2778C8.97676 12.5101 9.21266 12.7469 9.44555 12.6572L12.3243 11.5501C12.3622 11.5347 12.3976 11.5127 12.4265 11.4836L14.4057 9.5045V13.6006C14.4057 14.1295 13.9755 14.5597 13.4466 14.5597H7.18325C7.02106 14.5597 6.88965 14.6911 6.88965 14.8533V17.3581L3.61324 14.6277C3.56043 14.5838 3.49399 14.5597 3.42528 14.5597H1.54625C1.01738 14.5597 0.587188 14.1295 0.587188 13.6006V5.14512C0.587188 4.61625 1.01738 4.18606 1.54625 4.18606H9.94958C10.1118 4.18606 10.2432 4.05465 10.2432 3.89246C10.2432 3.73027 10.1118 3.59887 9.94958 3.59887H1.54625C0.693672 3.59883 0 4.2925 0 5.14508V13.6006C0 14.4532 0.693672 15.1469 1.54625 15.1469H3.31895L6.99528 18.2105C7.18309 18.367 7.47684 18.2282 7.47684 17.985V15.1469H13.4466C14.2991 15.1469 14.9928 14.4532 14.9928 13.6006V9.02052C14.9928 8.98935 14.9879 8.95939 14.9789 8.93118L19.734 4.17602C20.0886 3.82133 20.0886 3.22965 19.7341 2.875ZM17.0906 3.27641L17.5611 3.74699L11.3331 9.97497L10.8625 9.50439L17.0906 3.27641ZM9.85126 11.872L10.0671 11.311L10.4123 11.6562L9.85126 11.872ZM11.0121 11.4255L10.2977 10.7112L10.5591 10.0315L11.6918 11.1641L11.0121 11.4255ZM12.2189 10.8608L11.7483 10.3902L17.9763 4.16219L18.4469 4.63278L12.2189 10.8608ZM19.3188 3.76078L18.8621 4.2175L17.5058 2.86117L17.9625 2.40445C18.0922 2.27473 18.3033 2.27473 18.4331 2.40445L19.3188 3.2902C19.4486 3.41992 19.4486 3.6311 19.3188 3.76078Z" fill="white"/>
</svg>
