<svg width="15" height="15" viewBox="0 0 15 15" fill="none" xmlns="http://www.w3.org/2000/svg">
<g clip-path="url(#clip0)">
<path d="M8.52393 14.9707H6.12114C5.7198 14.9707 5.39333 14.6443 5.39333 14.2431V8.825H3.99149C3.59015 8.825 3.26367 8.4985 3.26367 8.09738V5.77572C3.26367 5.37449 3.59015 5.0481 3.99149 5.0481H5.39333V3.8855C5.39333 2.73273 5.7554 1.75198 6.44029 1.04942C7.12828 0.343666 8.08973 -0.0292969 9.22073 -0.0292969L11.0532 -0.0263214C11.4539 -0.0256348 11.7798 0.300751 11.7798 0.701294V2.8569C11.7798 3.25813 11.4534 3.58452 11.0522 3.58452L9.81839 3.58498C9.44212 3.58498 9.3463 3.66039 9.32581 3.68351C9.29204 3.72185 9.25186 3.83022 9.25186 4.12949V5.04799H10.9595C11.088 5.04799 11.2126 5.07969 11.3196 5.13943C11.5505 5.2684 11.694 5.51228 11.694 5.77583L11.6931 8.0975C11.6931 8.4985 11.3666 8.82488 10.9653 8.82488H9.25186V14.2431C9.25186 14.6443 8.92527 14.9707 8.52393 14.9707ZM6.27293 14.0913H8.37214V8.43132C8.37214 8.16341 8.59021 7.94552 8.85808 7.94552H10.8135L10.8143 5.92747H8.85796C8.59009 5.92747 8.37214 5.70957 8.37214 5.44167V4.12949C8.37214 3.78593 8.40705 3.39523 8.66645 3.10158C8.97987 2.74658 9.47382 2.70561 9.81816 2.70561L10.9002 2.70515V0.852814L9.22004 0.850067C7.40244 0.850067 6.27293 2.01324 6.27293 3.8855V5.44167C6.27293 5.70946 6.05498 5.92747 5.78711 5.92747H4.14328V7.94552H5.78711C6.05498 7.94552 6.27293 8.16341 6.27293 8.43132V14.0913ZM11.0515 0.853043H11.0516H11.0515Z" fill="#BDBDBD"/>
</g>
<defs>
<clipPath id="clip0">
<rect width="14.9749" height="15" fill="white" transform="translate(0.0253906)"/>
</clipPath>
</defs>
</svg>
