<svg width="21" height="20" viewBox="0 0 21 20" fill="none" xmlns="http://www.w3.org/2000/svg">
<g clip-path="url(#clip0)">
<path d="M9.62213 3.77443C8.58668 3.76466 7.80521 3.81349 7.15073 4.15041C6.8821 4.28712 6.69162 4.46291 6.5451 4.66798C6.46695 4.77052 6.39369 4.8633 6.3595 5.07814C6.33996 5.18068 6.32531 5.35158 6.43276 5.53712C6.54021 5.72755 6.76977 5.85451 6.92606 5.87892C7.04328 5.89357 7.29238 5.99611 7.33633 6.0547C7.4389 6.20119 7.47797 6.30861 7.49263 6.3672C7.50728 6.4258 7.5024 6.38673 7.5024 6.38673V6.44533C7.5024 6.44533 7.54147 7.06056 7.51705 7.69533C7.5024 8.00783 7.47309 8.33498 7.42425 8.5547C7.37541 8.77443 7.2533 8.82814 7.42913 8.7256C7.30703 8.79884 7.35099 8.82814 7.19958 8.75001C7.04328 8.67677 6.6379 8.33498 6.10552 7.37794C5.57315 6.41603 5.1873 5.91798 5.09938 5.81056C5.06519 5.71291 4.98216 5.51271 4.69888 5.29298C4.33257 5.00978 3.95648 5.0049 3.95648 5.0049L3.9223 5.00001H1.19204C1.19204 5.00001 1.03575 5.0049 0.855033 5.04396C0.674319 5.08302 0.415457 5.12697 0.171248 5.4297H0.166365C-0.0827291 5.74708 -0.0387715 6.03517 -0.0192348 6.21095C0.00518611 6.39162 0.058912 6.53322 0.058912 6.53322L0.0686804 6.56251L0.083333 6.59181C0.083333 6.59181 2.16888 11.0401 4.65981 13.75C6.99933 16.2988 9.71004 16.25 9.71004 16.25H11.2486L11.2827 16.2451C11.2827 16.2451 11.776 16.2695 12.1912 15.8057C12.4012 15.5664 12.4501 15.3418 12.4745 15.1758C12.5038 15.0049 12.5038 14.8682 12.5038 14.8682V14.9072C12.5038 14.9072 12.5233 14.585 12.6112 14.2481C12.6552 14.082 12.7187 13.916 12.7773 13.8233C12.8066 13.7695 12.8066 13.7842 12.8164 13.7695C12.9238 13.8477 13.0997 14.0283 13.2853 14.2578C13.6662 14.7119 14.096 15.3418 14.6968 15.7764C15.1315 16.084 15.5417 16.2207 15.8543 16.2695C16.0644 16.3037 16.2158 16.2988 16.3183 16.2891L18.4429 16.25H18.4625C18.4625 16.25 18.9021 16.2402 19.3416 15.9619C19.5565 15.8252 19.8056 15.5762 19.8887 15.2197C19.9766 14.8633 19.8789 14.4776 19.6738 14.1211C19.7421 14.2432 19.6591 14.082 19.5956 13.9551C19.5321 13.8281 19.4344 13.6572 19.2879 13.4424C19.0046 13.0225 18.5357 12.4317 17.7592 11.6797C17.3929 11.3281 17.1584 11.1328 17.0119 10.9961C17.0558 10.9326 17.0607 10.9277 17.2268 10.7324C17.4905 10.4248 17.8764 9.97072 18.3648 9.29201C18.9509 8.47169 19.3758 7.80275 19.6493 7.24611C19.9229 6.69435 20.1426 6.23537 19.8984 5.66896C19.7666 5.36134 19.5321 5.24416 19.3612 5.17091C19.1853 5.09767 19.0291 5.06837 18.8825 5.04396C18.5944 5.00001 18.3404 5.00001 18.3404 5.00001L15.8641 5.01955C15.7908 5.0049 15.5076 4.95119 15.1412 5.18556C14.7798 5.41017 14.6968 5.64943 14.6772 5.72267C14.6186 5.80568 14.2084 6.38673 13.6369 7.40236C13.0606 8.42775 12.6699 8.70607 12.621 8.73048C12.6064 8.71583 12.6357 8.72072 12.5673 8.68166C12.538 8.65724 12.5087 8.63771 12.4843 8.37404C12.4647 8.11037 12.4891 7.69533 12.4891 7.20705C12.4891 6.15724 12.5819 5.61037 12.5282 5.08791C12.5038 4.82423 12.3963 4.50197 12.1619 4.28712C11.9275 4.07716 11.6735 3.99904 11.4097 3.93068C10.9946 3.82814 10.4329 3.78419 9.62213 3.77443ZM9.61236 5.02443C10.3694 5.03419 10.9018 5.09279 11.0971 5.14162C11.2632 5.18556 11.2876 5.20509 11.2827 5.19533C11.2827 5.20509 11.2827 5.20021 11.2827 5.21486C11.3023 5.42482 11.2388 6.09865 11.2388 7.20705C11.2388 7.64162 11.2046 8.06154 11.2388 8.48146C11.273 8.90138 11.4244 9.41408 11.8688 9.71681H11.8737C11.82 9.68263 12.4354 10.1416 13.0215 9.93166C13.6076 9.71681 14.0716 9.1797 14.731 8.01271C15.3073 6.97755 15.7322 6.3965 15.7322 6.3965L15.7713 6.33791L15.8006 6.27931C15.8006 6.27931 15.7908 6.27443 15.8006 6.26955L18.3404 6.25001C18.3404 6.25001 18.5162 6.25001 18.6872 6.27931C18.692 6.27931 18.6969 6.27931 18.7018 6.27931C18.6774 6.28908 18.6969 6.35255 18.526 6.69923C18.3062 7.14357 17.9106 7.77833 17.3489 8.56447C16.8849 9.20412 16.5381 9.61916 16.2793 9.92189C16.0204 10.2197 15.825 10.3613 15.698 10.752C15.6345 10.9424 15.6492 11.2256 15.742 11.416C15.8299 11.6016 15.9374 11.7041 16.0448 11.8067C16.2597 12.0117 16.5137 12.2119 16.8849 12.5781C17.6126 13.2813 18.0229 13.7988 18.2525 14.1406C18.3697 14.3164 18.4381 14.4385 18.482 14.5264C18.526 14.6143 18.4967 14.5801 18.5944 14.7461C18.6774 14.8975 18.6627 14.917 18.6627 14.9072C18.5797 14.9561 18.3697 15 18.3648 15L16.2402 15.0391L16.1816 15.0537C16.1816 15.0537 16.1865 15.0586 16.0546 15.0391C15.9178 15.0147 15.7029 14.9561 15.4294 14.7608C15.0924 14.5215 14.6675 13.9649 14.2474 13.457C14.0423 13.208 13.8323 12.9639 13.5685 12.7686C13.3048 12.5733 12.8896 12.3926 12.4647 12.5342C12.0984 12.6514 11.8591 12.9199 11.7077 13.169C11.5563 13.4229 11.4683 13.6865 11.4 13.9258C11.273 14.4092 11.2534 14.8438 11.2534 14.8438V14.8828C11.2534 14.8828 11.2534 14.9121 11.2437 14.9561C11.2193 14.9658 11.1851 14.9902 11.1655 15H9.67097C9.67097 15 7.60496 15.1074 5.57803 12.9102C3.40946 10.542 1.48021 6.58205 1.31903 6.25001H3.83438C3.8588 6.25978 3.94672 6.29396 3.93695 6.28908C3.87834 6.24025 3.96625 6.34767 3.96625 6.34767L4.00533 6.44044L4.07371 6.51857C4.07371 6.51857 4.45955 6.98732 5.01147 7.98341C5.60245 9.05275 6.10064 9.60939 6.65743 9.87794C7.21423 10.1465 7.80033 9.95607 8.04942 9.81447C8.51342 9.54591 8.56715 9.16994 8.64529 8.82326C8.72344 8.47658 8.74786 8.10548 8.76251 7.74416C8.79182 7.0508 8.75274 6.45998 8.75274 6.41603C8.74786 6.40138 8.74786 6.23048 8.69902 6.04494C8.64529 5.85451 8.54761 5.60548 8.36201 5.34181C8.28386 5.23439 8.2106 5.2881 8.12757 5.20998C8.47435 5.11232 8.84554 5.01466 9.61236 5.02443Z" fill="white"/>
</g>
<defs>
<clipPath id="clip0">
<rect width="20.0056" height="20" fill="white"/>
</clipPath>
</defs>
</svg>
