<svg width="99" height="43" viewBox="0 0 99 43" fill="none" xmlns="http://www.w3.org/2000/svg">
<path d="M81.6586 25.9989C85.7037 25.9989 88.9844 29.5794 88.9844 34.0002C88.9844 34.3431 88.9592 34.6786 88.9204 35.0067C88.466 38.9534 85.3917 42.0036 81.6595 42.0036C77.8237 42.0036 74.6816 38.784 74.3638 34.6839C74.3463 34.4574 74.3318 34.2309 74.3318 34.0002C74.3308 29.5794 77.6105 25.9989 81.6586 25.9989ZM85.3278 30.9849L83.8328 32.618C83.95 32.836 84.0401 33.072 84.0982 33.3218H86.2046C86.0951 32.4486 85.7899 31.6548 85.3278 30.9849ZM86.2124 34.7061H84.0915C84.0314 34.9527 83.9432 35.1866 83.826 35.4004L85.3239 37.0367C85.7851 36.3709 86.1 35.575 86.2124 34.7061ZM82.2922 38.9714C83.0848 38.8528 83.8076 38.512 84.417 38.0104L82.9278 36.3826C82.7321 36.5075 82.517 36.5996 82.2922 36.6641V38.9714ZM82.2922 31.3384C82.5228 31.404 82.7389 31.5046 82.9394 31.6337L84.4325 30.0027C83.8192 29.4947 83.0906 29.156 82.2922 29.0364V31.3384ZM81.0239 29.0364C80.2236 29.156 79.496 29.4947 78.8837 30.0038L80.3758 31.6337C80.5763 31.5046 80.7924 31.4029 81.0239 31.3384V29.0364ZM81.0239 38.9714V36.662C80.7982 36.5974 80.5841 36.5064 80.3874 36.3784L78.8972 38.0082C79.5076 38.512 80.2294 38.8507 81.0239 38.9714ZM77.9884 37.0409L79.4911 35.3994C79.3749 35.1845 79.278 34.9548 79.2179 34.7061H77.1135C77.2249 35.575 77.5243 36.3752 77.9884 37.0409ZM79.217 33.3218C79.2751 33.072 79.3652 32.836 79.4824 32.618L77.9874 30.9849C77.5243 31.6548 77.2201 32.4486 77.1106 33.3218H79.217Z" fill="#0F0F0F"/>
<path d="M20.9838 25.9989C25.0299 25.9989 28.3096 29.5794 28.3096 34.0002C28.3096 34.3431 28.2853 34.6786 28.2466 35.0067C27.7931 38.9534 24.7169 42.0036 20.9857 42.0036C17.1508 42.0036 14.0087 38.784 13.69 34.6839C13.6725 34.4574 13.6599 34.2309 13.6599 34.0002C13.658 29.5794 16.9367 25.9989 20.9838 25.9989ZM24.6539 30.9849L23.1589 32.618C23.2752 32.836 23.3663 33.072 23.4234 33.3218H25.5308C25.4213 32.4486 25.1161 31.6548 24.6539 30.9849ZM25.5376 34.7061H23.4157C23.3556 34.9527 23.2684 35.1866 23.1522 35.4004L24.6491 37.0367C25.1113 36.3709 25.4261 35.575 25.5376 34.7061ZM21.6184 38.9714C22.411 38.8528 23.1328 38.512 23.7422 38.0104L22.253 36.3826C22.0583 36.5075 21.8422 36.5996 21.6184 36.6641V38.9714ZM21.6184 31.3384C21.848 31.404 22.0651 31.5046 22.2666 31.6337L23.7597 30.0027C23.1454 29.4947 22.4177 29.156 21.6194 29.0364L21.6184 31.3384ZM20.3491 29.0364C19.5508 29.156 18.8222 29.4947 18.2089 30.0038L19.7019 31.6337C19.9025 31.5046 20.1195 31.4029 20.3491 31.3384V29.0364ZM20.3491 38.9714V36.662C20.1253 36.5974 19.9093 36.5064 19.7145 36.3784L18.2244 38.0082C18.8338 38.512 19.5566 38.8507 20.3491 38.9714ZM17.3146 37.0409L18.8173 35.3994C18.7011 35.1845 18.6042 34.9548 18.5451 34.7061H16.4387C16.5511 35.575 16.8514 36.3752 17.3146 37.0409ZM18.5441 33.3218C18.6022 33.072 18.6914 32.836 18.8076 32.618L17.3136 30.9849C16.8505 31.6548 16.5462 32.4486 16.4358 33.3218H18.5441Z" fill="#0F0F0F"/>
<path d="M1.90198 20.3911C1.95623 18.6236 1.60767 14.7847 2.40507 13.2468L6.41414 3.63191C6.66568 3.13731 4.35146 2.0382 4.25085 1.97714C3.73138 1.58546 3.78481 1.62907 4.35146 1.36543C6.23294 0.490053 11.3448 0.625136 12.6681 0.5521C21.6734 0.442123 49.4943 -0.107494 57.1196 1.7242C65.1405 2.36552 82.7486 14.4024 82.7486 14.4024C82.7486 14.4024 86.1347 14.6844 90.0979 17.5333C94.9737 18.6873 94.4661 19.877 96.0302 24.277C96.0302 24.277 97.753 25.3555 97.9923 27.5072C98.1154 28.6142 97.5192 33.6554 97.1878 35.0641C96.8245 36.6051 95.0542 36.6881 93.6154 36.9326H90.0435C90.1471 36.5188 89.9931 37.2566 90.0435 36.8227C90.0871 36.448 89.6913 31.8847 89.6913 31.492C88.9367 25.8865 84.761 24.8661 80.7363 24.9523C75.6047 25.0622 73.6604 28.7442 73.3911 33.7452C73.3408 34.6794 73.2905 35.5038 73.2905 36.3757H72.3741L29.5428 36.4769C29.6019 36.1932 29.5133 34.1138 29.3415 32.9047C28.8888 29.7173 27.9329 28.9559 27.9329 28.5632C25.6479 25.7766 24.6483 25.221 20.0344 25.3208C14.9532 25.4308 12.6892 30.7615 12.6892 32.9047C12.6892 33.1683 12.6689 33.5536 12.6892 33.8098C12.7018 33.9791 12.6689 36.3096 12.6892 36.4769L4.6901 35.2129C4.36693 35.1407 3.73423 35.6525 3.73423 35.6525C3.73423 35.6525 2.37589 35.3228 2.27526 35.103C2.27349 34.926 2.4765 34.8282 2.37589 34.6633C1.97341 34.6084 1.62125 34.6084 1.62125 34.6084C1.62125 34.6084 0.962822 34.0294 0.967232 33.5093C0.971275 33.0317 1.33582 32.6883 1.47032 32.1354C0.967232 31.8606 0.957466 30.2444 0.967232 29.9371C0.967232 29.9371 0.771248 26.5869 0.967232 24.4578C1.16918 22.2638 1.90198 20.3911 1.90198 20.3911ZM28.0718 4.0166L25.6468 11.6005C25.3807 12.6972 25.3807 12.6972 26.5378 12.6972H42.2C43.977 12.5985 46.275 9.18002 48.5542 6.65206C51.0886 3.41442 49.9013 3.41442 48.6899 3.41442C44.0027 3.41442 34.2567 3.41442 28.9023 3.41442C28.2986 3.41209 28.2986 3.41442 28.0718 4.0166ZM72.9216 14.21C72.9227 14.8429 72.9227 14.733 73.5884 14.7442L75.5549 14.7855C76.2515 14.7855 77.7021 14.7879 77.7021 14.7879C78.507 14.7879 78.2052 14.5681 77.8027 14.2384C77.8027 14.2384 76.4375 13.1164 76.1781 12.908C75.3447 12.2432 74.3461 11.4638 73.2375 10.6361C72.8128 10.319 72.7872 10.2815 72.8128 11.0248C72.8427 11.8941 72.9216 14.21 72.9216 14.21ZM71.2988 14.1284L71.2346 10.5424C71.1619 9.82798 71.1619 9.81731 70.8098 9.56712C67.5775 7.27078 63.2859 5.10167 60.2107 4.01418C58.9645 3.57404 56.5071 3.5917 53.755 3.48223C52.3966 3.48223 52.3966 3.48223 52.137 4.95085C52.137 4.95085 51.4995 9.3473 51.1934 11.3807C50.8874 13.414 50.8371 13.3591 52.3463 13.4489C53.7082 13.53 68.068 14.3293 70.8601 14.4846C71.2988 14.509 71.3128 14.5131 71.2988 14.1284ZM9.10704 12.0867C9.40108 12.6446 9.38237 12.6446 10.3886 12.6446L22.6137 12.695C23.1168 12.6972 23.1168 12.695 23.2798 12.2599L26.06 3.9858C26.2862 3.42906 26.2862 3.35713 25.7831 3.35713C21.1044 3.35713 15.1911 3.29992 13.251 3.41442C12.3218 3.4684 11.4837 4.05368 11.0506 4.95329L9.05762 9.08411C8.57743 10.2266 8.82897 11.5591 9.10704 12.0867Z" fill="black"/>
</svg>
