<svg width="16" height="15" viewBox="0 0 16 15" fill="none" xmlns="http://www.w3.org/2000/svg">
<g clip-path="url(#clip0)">
<path d="M10.9515 0H4.07028C1.83074 0 0.00878906 1.82144 0.00878906 4.06036V10.9397C0.00878906 13.1785 1.83074 15 4.07028 15H10.9516C13.191 15 15.0129 13.1785 15.0129 10.9397V4.06036C15.0129 1.82144 13.191 0 10.9515 0V0ZM14.1333 10.9397C14.1333 12.6936 12.706 14.1206 10.9515 14.1206H4.07028C2.31576 14.1206 0.888397 12.6936 0.888397 10.9397V4.06036C0.888397 2.30632 2.31576 0.879362 4.07028 0.879362H10.9516C12.706 0.879362 14.1333 2.30632 14.1333 4.06036V10.9397Z" fill="#BDBDBD"/>
<path d="M7.51079 3.39856C5.24858 3.39856 3.4082 5.23842 3.4082 7.5C3.4082 9.76158 5.24858 11.6014 7.51079 11.6014C9.773 11.6014 11.6134 9.76158 11.6134 7.5C11.6134 5.23842 9.773 3.39856 7.51079 3.39856ZM7.51079 10.7221C5.73371 10.7221 4.28781 9.27669 4.28781 7.5C4.28781 5.72342 5.73371 4.27792 7.51079 4.27792C9.28798 4.27792 10.7338 5.72342 10.7338 7.5C10.7338 9.27669 9.28798 10.7221 7.51079 10.7221Z" fill="#BDBDBD"/>
<path d="M11.7109 1.94189C11.0426 1.94189 10.499 2.4856 10.499 3.15382C10.499 3.82216 11.0426 4.36586 11.7109 4.36586C12.3793 4.36586 12.923 3.82216 12.923 3.15382C12.923 2.48549 12.3793 1.94189 11.7109 1.94189ZM11.7109 3.48639C11.5276 3.48639 11.3784 3.33716 11.3784 3.15382C11.3784 2.97037 11.5276 2.82126 11.7109 2.82126C11.8944 2.82126 12.0436 2.97037 12.0436 3.15382C12.0436 3.33716 11.8944 3.48639 11.7109 3.48639Z" fill="#BDBDBD"/>
</g>
<defs>
<clipPath id="clip0">
<rect width="15.0042" height="15" fill="white" transform="translate(0.00878906)"/>
</clipPath>
</defs>
</svg>
