<svg width="10" height="12" viewBox="0 0 10 12" fill="none" xmlns="http://www.w3.org/2000/svg">
<path d="M5.03893 2.62976C4.19323 2.62976 3.50488 3.31811 3.50488 4.16381C3.50488 5.00951 4.19323 5.69786 5.03893 5.69786C5.88463 5.69786 6.57299 5.00951 6.57299 4.16381C6.57299 3.31811 5.88463 2.62976 5.03893 2.62976ZM5.03893 5.25956C4.43474 5.25956 3.94318 4.76801 3.94318 4.16381C3.94318 3.55961 4.43474 3.06806 5.03893 3.06806C5.64313 3.06806 6.13468 3.55961 6.13468 4.16381C6.13468 4.76801 5.64313 5.25956 5.03893 5.25956Z" fill="white"/>
<path d="M7.97226 1.23097C7.1785 0.437204 6.12308 0 5.00059 0C3.87788 0 2.82268 0.437204 2.02892 1.23097C0.559953 2.69971 0.377401 5.46319 1.63357 7.1375L5.00059 12L8.36257 7.14429C9.62378 5.46319 9.44123 2.69971 7.97226 1.23097ZM8.00711 6.88811L5.00059 11.2299L1.98925 6.88131C0.849888 5.36216 1.01315 2.86648 2.33901 1.54084C3.04994 0.829921 3.99513 0.4383 5.00059 0.4383C6.00605 0.4383 6.95124 0.829921 7.66239 1.54084C8.98824 2.86648 9.15151 5.36216 8.00711 6.88811Z" fill="white"/>
</svg>
