<svg width="12" height="10" viewBox="0 0 12 10" fill="none" xmlns="http://www.w3.org/2000/svg">
<path d="M10.5351 0.433838H1.46741C0.657976 0.433838 0 1.09181 0 1.90125V8.09864C0 8.90808 0.657976 9.56605 1.46741 9.56605H10.5326C11.342 9.56605 12 8.90808 12 8.09864V1.90373C12.0025 1.0943 11.3445 0.433838 10.5351 0.433838ZM11.3321 8.09864C11.3321 8.53812 10.9746 8.89566 10.5351 8.89566H1.46741C1.02793 8.89566 0.670391 8.53812 0.670391 8.09864V1.90373C0.670391 1.46425 1.02793 1.10671 1.46741 1.10671H10.5326C10.9721 1.10671 11.3296 1.46425 11.3296 1.90373V8.09864H11.3321Z" fill="white"/>
<path d="M7.56844 4.92304L10.5033 2.29113C10.6398 2.16699 10.6522 1.95594 10.5281 1.81689C10.4039 1.68033 10.1929 1.66792 10.0539 1.79206L6.00668 5.42459L5.21711 4.71944C5.21463 4.71696 5.21214 4.71447 5.21214 4.71199C5.19476 4.69461 5.17738 4.67971 5.15752 4.66481L1.94461 1.78958C1.80556 1.66543 1.59451 1.67785 1.47037 1.81689C1.34622 1.95594 1.35864 2.16699 1.49768 2.29113L4.46726 4.94539L1.51009 7.71385C1.37602 7.84048 1.36857 8.05153 1.4952 8.18809C1.56224 8.25761 1.65162 8.29486 1.74101 8.29486C1.82294 8.29486 1.90488 8.26506 1.96944 8.20547L4.9713 5.39728L5.7857 6.12478C5.85026 6.18189 5.92971 6.2092 6.00916 6.2092C6.08862 6.2092 6.17055 6.1794 6.23263 6.12229L7.06938 5.37245L10.0539 8.20796C10.1184 8.27003 10.2028 8.29982 10.2848 8.29982C10.3742 8.29982 10.4611 8.26506 10.5281 8.19554C10.6547 8.06146 10.6498 7.84793 10.5157 7.7213L7.56844 4.92304Z" fill="white"/>
</svg>
