<svg width="8" height="8" viewBox="0 0 8 8" fill="none" xmlns="http://www.w3.org/2000/svg">
<path d="M7.86657 6.2551C7.86657 6.1439 7.77663 6.05396 7.66543 6.05396H0.81833L2.02193 4.85036C2.10042 4.77186 2.10042 4.64594 2.02193 4.56745C1.94343 4.48895 1.81751 4.48895 1.73902 4.56745L0.193637 6.11283C0.115142 6.19132 0.115142 6.31724 0.193637 6.39574L1.73902 7.94112C1.77826 7.98037 1.82896 7.99999 1.88129 7.99999C1.93362 7.99999 1.98432 7.98037 2.02356 7.94112C2.10206 7.86262 2.10206 7.7367 2.02356 7.65821L0.819966 6.45461H7.6687C7.77663 6.45461 7.86657 6.3663 7.86657 6.2551Z" fill="black"/>
<path d="M7.80738 1.60262L6.262 0.0588716C6.18351 -0.0196239 6.05759 -0.0196239 5.97909 0.0588716C5.9006 0.137367 5.9006 0.263287 5.97909 0.341782L7.18269 1.54538H0.333957C0.222755 1.54538 0.132812 1.63532 0.132812 1.74652C0.132812 1.85773 0.222755 1.94767 0.333957 1.94767H7.18269L5.97909 3.148C5.9006 3.22649 5.9006 3.35241 5.97909 3.43091C6.01834 3.47016 6.06903 3.48978 6.12136 3.48978C6.1737 3.48978 6.22439 3.47016 6.26364 3.43091L7.80902 1.88553C7.88588 1.80867 7.88588 1.68111 7.80738 1.60262Z" fill="black"/>
</svg>
