<svg width="99" height="37" viewBox="0 0 99 37" fill="none" xmlns="http://www.w3.org/2000/svg">
<path d="M1.90198 20.3911C1.95623 18.6236 1.60767 14.7847 2.40507 13.2468L6.41414 3.63191C6.66568 3.13731 4.35146 2.0382 4.25085 1.97714C3.73138 1.58546 3.78481 1.62907 4.35146 1.36543C6.23294 0.490053 11.3448 0.625136 12.6681 0.5521C21.6734 0.442123 49.4943 -0.107494 57.1196 1.7242C65.1405 2.36552 82.7486 14.4024 82.7486 14.4024C82.7486 14.4024 86.1347 14.6844 90.0979 17.5333C94.9737 18.6873 94.4661 19.877 96.0302 24.277C96.0302 24.277 97.753 25.3555 97.9923 27.5072C98.1154 28.6142 97.5192 33.6554 97.1878 35.0641C96.8245 36.6051 95.0542 36.6881 93.6154 36.9326H90.0435C90.1471 36.5188 89.9931 37.2566 90.0435 36.8227C90.0871 36.448 89.6913 31.8847 89.6913 31.492C88.9367 25.8865 84.761 24.8661 80.7363 24.9523C75.6047 25.0622 73.6604 28.7442 73.3911 33.7452C73.3408 34.6794 73.2905 35.5038 73.2905 36.3757H72.3741L29.5428 36.4769C29.6019 36.1932 29.5133 34.1138 29.3415 32.9047C28.8888 29.7173 27.9329 28.9559 27.9329 28.5632C25.6479 25.7766 24.6483 25.221 20.0344 25.3208C14.9532 25.4308 12.6892 30.7615 12.6892 32.9047C12.6892 33.1683 12.6689 33.5536 12.6892 33.8098C12.7018 33.9791 12.6689 36.3096 12.6892 36.4769L4.6901 35.2129C4.36693 35.1407 3.73423 35.6525 3.73423 35.6525C3.73423 35.6525 2.37589 35.3228 2.27526 35.103C2.27349 34.926 2.4765 34.8282 2.37589 34.6633C1.97341 34.6084 1.62125 34.6084 1.62125 34.6084C1.62125 34.6084 0.962822 34.0294 0.967232 33.5093C0.971275 33.0317 1.33582 32.6883 1.47032 32.1354C0.967232 31.8606 0.957466 30.2444 0.967232 29.9371C0.967232 29.9371 0.771248 26.5869 0.967232 24.4578C1.16918 22.2638 1.90198 20.3911 1.90198 20.3911ZM28.0718 4.0166L25.6468 11.6005C25.3807 12.6972 25.3807 12.6972 26.5378 12.6972H42.2C43.977 12.5985 46.275 9.18002 48.5542 6.65206C51.0886 3.41442 49.9013 3.41442 48.6899 3.41442C44.0027 3.41442 34.2567 3.41442 28.9023 3.41442C28.2986 3.41209 28.2986 3.41442 28.0718 4.0166ZM72.9216 14.21C72.9227 14.8429 72.9227 14.733 73.5884 14.7442L75.5549 14.7855C76.2515 14.7855 77.7021 14.7879 77.7021 14.7879C78.507 14.7879 78.2052 14.5681 77.8027 14.2384C77.8027 14.2384 76.4375 13.1164 76.1781 12.908C75.3447 12.2432 74.3461 11.4638 73.2375 10.6361C72.8128 10.319 72.7872 10.2815 72.8128 11.0248C72.8427 11.8941 72.9216 14.21 72.9216 14.21ZM71.2988 14.1284L71.2346 10.5424C71.1619 9.82798 71.1619 9.81731 70.8098 9.56712C67.5775 7.27078 63.2859 5.10167 60.2107 4.01418C58.9645 3.57404 56.5071 3.5917 53.755 3.48223C52.3966 3.48223 52.3966 3.48223 52.137 4.95085C52.137 4.95085 51.4995 9.3473 51.1934 11.3807C50.8874 13.414 50.8371 13.3591 52.3463 13.4489C53.7082 13.53 68.068 14.3293 70.8601 14.4846C71.2988 14.509 71.3128 14.5131 71.2988 14.1284ZM9.10704 12.0867C9.40108 12.6446 9.38237 12.6446 10.3886 12.6446L22.6137 12.695C23.1168 12.6972 23.1168 12.695 23.2798 12.2599L26.06 3.9858C26.2862 3.42906 26.2862 3.35713 25.7831 3.35713C21.1044 3.35713 15.1911 3.29992 13.251 3.41442C12.3218 3.4684 11.4837 4.05368 11.0506 4.95329L9.05762 9.08411C8.57743 10.2266 8.82897 11.5591 9.10704 12.0867Z" fill="black"/>
</svg>
