<svg width="16" height="15" viewBox="0 0 16 15" fill="none" xmlns="http://www.w3.org/2000/svg">
<g clip-path="url(#clip0)">
<path d="M7.2166 2.83079C6.44001 2.82347 5.85391 2.86009 5.36305 3.11277C5.16158 3.21531 5.01872 3.34715 4.90882 3.50096C4.85021 3.57786 4.79526 3.64744 4.76962 3.80857C4.75497 3.88548 4.74398 4.01365 4.82457 4.15281C4.90516 4.29563 5.07733 4.39085 5.19455 4.40916C5.28246 4.42015 5.46928 4.49705 5.50225 4.541C5.57918 4.65086 5.60848 4.73143 5.61947 4.77537C5.63046 4.81932 5.6268 4.79002 5.6268 4.79002V4.83396C5.6268 4.83396 5.6561 5.29539 5.63779 5.77146C5.6268 6.00584 5.60482 6.2512 5.56819 6.416C5.53156 6.58079 5.43998 6.62107 5.57185 6.54417C5.48027 6.5991 5.51324 6.62107 5.39968 6.56248C5.28246 6.50755 4.97842 6.2512 4.57914 5.53343C4.17986 4.81199 3.89047 4.43846 3.82454 4.35789C3.79889 4.28465 3.73662 4.1345 3.52416 3.96971C3.24942 3.7573 2.96736 3.75364 2.96736 3.75364L2.94172 3.74998H0.894031C0.894031 3.74998 0.77681 3.75364 0.641275 3.78294C0.505739 3.81224 0.311592 3.8452 0.128436 4.07225H0.124773C-0.0620468 4.31028 -0.0290786 4.52635 -0.0144261 4.65818C0.00388958 4.79368 0.044184 4.89988 0.044184 4.89988L0.0515103 4.92185L0.0624997 4.94383C0.0624997 4.94383 1.62666 8.28001 3.49485 10.3125C5.24949 12.2241 7.28253 12.1875 7.28253 12.1875H8.43642L8.46206 12.1838C8.46206 12.1838 8.83204 12.2021 9.1434 11.8542C9.30092 11.6748 9.33755 11.5063 9.35586 11.3818C9.37784 11.2536 9.37784 11.1511 9.37784 11.1511V11.1804C9.37784 11.1804 9.3925 10.9387 9.45843 10.686C9.4914 10.5615 9.53902 10.437 9.58298 10.3674C9.60496 10.3271 9.60496 10.3381 9.61228 10.3271C9.69287 10.3857 9.82475 10.5212 9.96394 10.6933C10.2497 11.0339 10.572 11.5063 11.0226 11.8323C11.3486 12.063 11.6563 12.1655 11.8908 12.2021C12.0483 12.2278 12.1618 12.2241 12.2387 12.2168L13.8322 12.1875H13.8469C13.8469 12.1875 14.1765 12.1802 14.5062 11.9714C14.6674 11.8689 14.8542 11.6821 14.9165 11.4148C14.9824 11.1474 14.9092 10.8581 14.7553 10.5908C14.8066 10.6824 14.7443 10.5615 14.6967 10.4663C14.6491 10.3711 14.5758 10.2429 14.4659 10.0818C14.2535 9.76683 13.9018 9.32371 13.3194 8.75975C13.0446 8.49607 12.8688 8.34959 12.7589 8.24705C12.7919 8.19944 12.7955 8.19578 12.9201 8.0493C13.1179 7.81858 13.4073 7.47801 13.7736 6.96897C14.2132 6.35374 14.5319 5.85203 14.737 5.43455C14.9421 5.02073 15.107 4.67649 14.9238 4.25169C14.8249 4.02098 14.6491 3.93309 14.5209 3.87815C14.389 3.82322 14.2718 3.80125 14.1619 3.78294C13.9458 3.74998 13.7553 3.74998 13.7553 3.74998L11.8981 3.76463C11.8431 3.75364 11.6307 3.71336 11.3559 3.88914C11.0849 4.0576 11.0226 4.23704 11.0079 4.29197C10.964 4.35423 10.6563 4.79002 10.2277 5.55174C9.79544 6.32078 9.50239 6.52952 9.46576 6.54783C9.45477 6.53684 9.47675 6.54051 9.42546 6.51121C9.40348 6.4929 9.38151 6.47825 9.36319 6.2805C9.34854 6.08274 9.36685 5.77146 9.36685 5.40525C9.36685 4.6179 9.43645 4.20774 9.39616 3.8159C9.37784 3.61814 9.29725 3.37645 9.12142 3.21531C8.94559 3.05784 8.75511 2.99925 8.5573 2.94798C8.24594 2.87107 7.82467 2.83812 7.2166 2.83079ZM7.20927 3.76829C7.77705 3.77561 8.17634 3.81956 8.32286 3.85618C8.44741 3.88914 8.46572 3.90379 8.46206 3.89646C8.46206 3.90379 8.46206 3.90013 8.46206 3.91111C8.47671 4.06858 8.42909 4.57395 8.42909 5.40525C8.42909 5.73118 8.40345 6.04612 8.42909 6.36106C8.45473 6.67601 8.56829 7.06053 8.90164 7.28758H8.9053C8.865 7.26194 9.32656 7.60618 9.76614 7.44871C10.2057 7.28758 10.5537 6.88475 11.0482 6.0095C11.4805 5.23313 11.7992 4.79734 11.7992 4.79734L11.8285 4.7534L11.8505 4.70945C11.8505 4.70945 11.8431 4.70579 11.8505 4.70213L13.7553 4.68748C13.7553 4.68748 13.8872 4.68748 14.0154 4.70945C14.019 4.70945 14.0227 4.70945 14.0264 4.70945C14.008 4.71678 14.0227 4.76438 13.8945 5.02439C13.7296 5.35765 13.4329 5.83372 13.0117 6.42332C12.6637 6.90306 12.4036 7.21434 12.2094 7.44139C12.0153 7.66477 11.8688 7.77098 11.7735 8.06395C11.7259 8.20677 11.7369 8.41917 11.8065 8.56199C11.8724 8.70115 11.953 8.77806 12.0336 8.85496C12.1948 9.00877 12.3853 9.15892 12.6637 9.43357C13.2095 9.96092 13.5172 10.3491 13.6893 10.6054C13.7773 10.7373 13.8285 10.8288 13.8615 10.8948C13.8945 10.9607 13.8725 10.935 13.9458 11.0596C14.008 11.1731 13.9971 11.1877 13.9971 11.1804C13.9348 11.217 13.7773 11.25 13.7736 11.25L12.1801 11.2793L12.1362 11.2903C12.1362 11.2903 12.1398 11.2939 12.0409 11.2793C11.9384 11.261 11.7772 11.217 11.5721 11.0705C11.3193 10.8911 11.0006 10.4736 10.6856 10.0928C10.5317 9.90599 10.3742 9.72288 10.1764 9.5764C9.9786 9.42991 9.66723 9.29441 9.34854 9.40061C9.0738 9.4885 8.89431 9.68992 8.78075 9.87669C8.6672 10.0671 8.60126 10.2649 8.54998 10.4443C8.45473 10.8069 8.44008 11.1328 8.44008 11.1328V11.1621C8.44008 11.1621 8.44008 11.1841 8.43276 11.217C8.41444 11.2243 8.3888 11.2427 8.37415 11.25H7.25323C7.25323 11.25 5.70372 11.3305 4.18352 9.6826C2.55709 7.90647 1.11016 4.9365 0.989272 4.68748H2.87578C2.8941 4.6948 2.96004 4.72044 2.95271 4.71678C2.90875 4.68016 2.97469 4.76072 2.97469 4.76072L3.00399 4.8303L3.05528 4.8889C3.05528 4.8889 3.34466 5.24046 3.7586 5.98753C4.20184 6.78953 4.57548 7.20701 4.99307 7.40843C5.41067 7.60984 5.85025 7.46702 6.03707 7.36082C6.38506 7.1594 6.42536 6.87742 6.48397 6.61741C6.54258 6.3574 6.56089 6.07908 6.57188 5.80809C6.59386 5.28807 6.56456 4.84495 6.56456 4.81199C6.56089 4.80101 6.56089 4.67283 6.52426 4.53367C6.48397 4.39085 6.41071 4.20408 6.27151 4.00633C6.2129 3.92576 6.15795 3.96604 6.09568 3.90745C6.35576 3.83421 6.63416 3.76097 7.20927 3.76829Z" fill="#BDBDBD"/>
</g>
<defs>
<clipPath id="clip0">
<rect width="15.0042" height="15" fill="white"/>
</clipPath>
</defs>
</svg>
