<?xml version="1.0" standalone="no"?>
<!DOCTYPE svg PUBLIC "-//W3C//DTD SVG 1.1//EN" "http://www.w3.org/Graphics/SVG/1.1/DTD/svg11.dtd" >
<svg xmlns="http://www.w3.org/2000/svg" xmlns:xlink="http://www.w3.org/1999/xlink" version="1.1">
<metadata>
Created by FontForge 20170924 at Mon Nov  4 18:51:13 2019
 By www-data
Copyright Quinn Davis 2019
</metadata>
<defs>
<font id="ToughSansRegular" horiz-adv-x="2267" >
  <font-face 
    font-family="Tough Sans"
    font-weight="500"
    font-stretch="normal"
    units-per-em="4096"
    panose-1="0 0 0 0 0 0 0 0 0 0"
    ascent="3276"
    descent="-820"
    x-height="2340"
    cap-height="2925"
    bbox="-585 -877 3803 3657"
    underline-thickness="50"
    underline-position="-100"
    unicode-range="U+0020-201D"
  />
<missing-glyph horiz-adv-x="472" 
d="M0 0v700h432v-700h-432zM50 650v-600h332v600h-332z" />
    <glyph glyph-name=".notdef" horiz-adv-x="472" 
d="M0 0v700h432v-700h-432zM50 650v-600h332v600h-332z" />
    <glyph glyph-name=".notdef" horiz-adv-x="472" 
d="M0 0v700h432v-700h-432zM50 650v-600h332v600h-332z" />
    <glyph glyph-name="space" unicode=" " horiz-adv-x="1024" 
 />
    <glyph glyph-name="exclam" unicode="!" horiz-adv-x="804" 
d="M585 0v585h-585v-585h585zM585 877v2048h-585v-2048h585z" />
    <glyph glyph-name="quotedbl" unicode="&#x22;" horiz-adv-x="1536" 
d="M585 2048v877h-585v-877h585zM1316 2048v877h-585v-877h585z" />
    <glyph glyph-name="numbersign" unicode="#" 
d="M877 1170v585h293v-585h-293zM877 0v585h293v-585h585v585h293v585h-293v585h293v585h-293v585h-585v-585h-293v585h-585v-585h-292v-585h292v-585h-292v-585h292v-585h585z" />
    <glyph glyph-name="dollar" unicode="$" 
d="M1316 0v292h439l293 293v877l-293 293h-1170v293h1463v585h-732v292h-585v-292h-439l-292 -293v-878l292 -292h1170v-293h-1462v-585h731v-292h585z" />
    <glyph glyph-name="percent" unicode="%" 
d="M1462 292v293h293v-293h-293zM2048 0v877h-878v-877h878zM292 2340v293h293v-293h-293zM877 2048v877h-877v-877h877zM585 0l1463 2925h-586l-1462 -2925h585z" />
    <glyph glyph-name="ampersand" unicode="&#x26;" 
d="M1316 0v292h439l293 293v731h-586v-439h-877v293h585v585h-585v293h877v-439h586v731l-293 293h-439v292h-585v-292h-439l-292 -293v-585l292 -293l-292 -292v-585l292 -293h439v-292h585z" />
    <glyph glyph-name="quotesingle" unicode="'" horiz-adv-x="804" 
d="M585 2048v877h-585v-877h585z" />
    <glyph glyph-name="parenleft" unicode="(" horiz-adv-x="1097" 
d="M877 0v585h-292v1755h292v585h-585l-292 -292v-2341l292 -292h585z" />
    <glyph glyph-name="parenright" unicode=")" horiz-adv-x="1097" 
d="M585 0l292 292v2341l-292 292h-585v-585h292v-1755h-292v-585h585z" />
    <glyph glyph-name="asterisk" unicode="*" horiz-adv-x="512" 
d="M55 2640l91 65l90 -65v0l-34 106l90 66h-112l-34 106l-35 -106h-111l90 -66l-35 -106v0z" />
    <glyph glyph-name="plus" unicode="+" horiz-adv-x="1974" 
d="M1170 292v585h585v585h-585v586h-585v-586h-585v-585h585v-585h585z" />
    <glyph glyph-name="comma" unicode="," horiz-adv-x="804" 
d="M292 -292l293 292v585h-585v-585h292v-292v0z" />
    <glyph glyph-name="hyphen" unicode="-" horiz-adv-x="1974" 
d="M1755 877v585h-1755v-585h1755z" />
    <glyph glyph-name="period" unicode="." horiz-adv-x="804" 
d="M585 0v585h-585v-585h585z" />
    <glyph glyph-name="slash" unicode="/" 
d="M585 0l1463 2925h-586l-1462 -2925h585z" />
    <glyph glyph-name="zero" unicode="0" 
d="M585 585v1755h877v-1755h-877zM1755 0l293 292v2341l-293 292h-1463l-292 -292v-2341l292 -292h1463z" />
    <glyph glyph-name="one" unicode="1" horiz-adv-x="1389" 
d="M1170 0v2925h-585l-585 -292v-585l585 292v-2340h585z" />
    <glyph glyph-name="two" unicode="2" 
d="M2048 0v877h-586v-292h-877v585h1170l293 292v1171l-293 292h-1463l-292 -292v-585h585v292h877v-585h-1170l-292 -293v-1462h2048z" />
    <glyph glyph-name="three" unicode="3" 
d="M1755 0l293 292v878l-293 292l293 293v878l-293 292h-1463l-292 -292v-585h585v292h877v-585h-877v-585h877v-585h-877v292h-585v-585l292 -292h1463z" />
    <glyph glyph-name="four" unicode="4" 
d="M585 1462v293l585 585v-878h-585zM1755 0v877h293v585h-293v1463h-878l-877 -877v-1171h1170v-877h585z" />
    <glyph glyph-name="five" unicode="5" 
d="M1755 0l293 292v1463l-293 293h-1170v292h1463v585h-2048v-1463h1462v-877h-877v292h-585v-585l292 -292h1463z" />
    <glyph glyph-name="six" unicode="6" 
d="M585 585v877h877v-877h-877zM1755 0l293 292v1463l-293 293h-1170v292h1463v585h-1756l-292 -292v-2341l292 -292h1463z" />
    <glyph glyph-name="seven" unicode="7" 
d="M1316 0v1024l732 731v1170h-2048v-585h1462v-292l-731 -732v-1316h585z" />
    <glyph glyph-name="eight" unicode="8" 
d="M585 585v585h877v-585h-877zM585 1755v585h877v-585h-877zM1755 0l293 292v878l-293 292l293 293v878l-293 292h-1463l-292 -292v-878l292 -293l-292 -292v-878l292 -292h1463z" />
    <glyph glyph-name="nine" unicode="9" 
d="M585 1462v878h877v-878h-877zM1755 0l293 292v2341l-293 292h-1463l-292 -292v-1463l292 -293h1170v-292h-1462v-585h1755z" />
    <glyph glyph-name="colon" unicode=":" horiz-adv-x="804" 
d="M585 0v585h-585v-585h585zM585 1170v585h-585v-585h585z" />
    <glyph glyph-name="semicolon" unicode=";" horiz-adv-x="804" 
d="M292 -292l293 292v585h-585v-585h292v-292v0zM585 1170v585h-585v-585h585z" />
    <glyph glyph-name="less" unicode="&#x3c;" horiz-adv-x="1682" 
d="M1462 658v585l-877 219l877 220v585l-1462 -366v-877l1462 -366v0z" />
    <glyph glyph-name="equal" unicode="=" 
d="M2048 585v585h-2048v-585h2048zM2048 1462v586h-2048v-586h2048z" />
    <glyph glyph-name="greater" unicode="&#x3e;" horiz-adv-x="1682" 
d="M0 658l1462 366v877l-1462 366v-585l877 -220l-877 -219v-585v0z" />
    <glyph glyph-name="question" unicode="?" 
d="M1316 0v585h-585v-585h585zM1316 877v293h439l293 292v1171l-293 292h-1463l-292 -292v-585h585v292h877v-585h-731v-878h585z" />
    <glyph glyph-name="at" unicode="@" horiz-adv-x="2852" 
d="M1316 1170l-146 146v293l146 146h146v-585h-146zM2633 0v585h-2048v1755h1463v-878h-147v732h-731l-439 -439v-585l439 -439h1463v1902l-293 292h-2048l-292 -292v-2341l292 -292h2341z" />
    <glyph glyph-name="A" unicode="A" horiz-adv-x="2560" 
d="M877 1170l293 1170l292 -1170h-585zM585 0l146 585h878l146 -585h585l-731 2925h-878l-731 -2925h585z" />
    <glyph glyph-name="B" unicode="B" 
d="M585 585v585h877v-585h-877zM585 1755v585h877v-585h-877zM1755 0l293 292v878l-293 292l293 293v878l-293 292h-1755v-2925h1755z" />
    <glyph glyph-name="C" unicode="C" 
d="M1755 0l293 292v585h-586v-292h-877v1755h877v-585h586v878l-293 292h-1463l-292 -292v-2341l292 -292h1463z" />
    <glyph glyph-name="D" unicode="D" 
d="M585 585v1755h877v-1755h-877zM1755 0l293 292v2341l-293 292h-1755v-2925h1755z" />
    <glyph glyph-name="E" unicode="E" horiz-adv-x="1974" 
d="M1755 0v585h-1170v585h1170v585h-1170v585h1170v585h-1755v-2925h1755z" />
    <glyph glyph-name="F" unicode="F" horiz-adv-x="1974" 
d="M585 0v1170h1170v585h-1170v585h1170v585h-1755v-2925h585z" />
    <glyph glyph-name="G" unicode="G" 
d="M1170 0l292 292v-292h586v1755h-1171v-585h585v-585h-877v1755h877v-292h586v585l-293 292h-1463l-292 -292v-2341l292 -292h878z" />
    <glyph glyph-name="H" unicode="H" 
d="M585 0v1170h877v-1170h586v2925h-586v-1170h-877v1170h-585v-2925h585z" />
    <glyph glyph-name="I" unicode="I" horiz-adv-x="804" 
d="M585 0v2925h-585v-2925h585z" />
    <glyph glyph-name="J" unicode="J" horiz-adv-x="1389" 
d="M877 0l293 292v2633h-585v-2340h-585v-585h877z" />
    <glyph glyph-name="K" unicode="K" 
d="M585 0v2925h-585v-2925h585zM2048 0l-836 1462l836 1463h-627l-836 -1463l836 -1462h627z" />
    <glyph glyph-name="L" unicode="L" horiz-adv-x="1974" 
d="M1755 0v585h-1170v2340h-585v-2925h1755z" />
    <glyph glyph-name="M" unicode="M" horiz-adv-x="3145" 
d="M585 0v1755l877 -1755l878 1755v-1755h585v2925h-585l-878 -1755l-877 1755h-585v-2925h585z" />
    <glyph glyph-name="N" unicode="N" 
d="M585 0v1755l877 -1755h586v2925h-586v-1755l-877 1755h-585v-2925h585z" />
    <glyph glyph-name="O" unicode="O" 
d="M585 585v1755h877v-1755h-877zM1755 0l293 292v2341l-293 292h-1463l-292 -292v-2341l292 -292h1463z" />
    <glyph glyph-name="P" unicode="P" 
d="M585 1755v585h877v-585h-877zM585 0v1170h1170l293 292v1171l-293 292h-1755v-2925h585z" />
    <glyph glyph-name="Q" unicode="Q" 
d="M1316 585v439h-585v-439h-146v1755h877v-1755h-146zM1316 -292v292h439l293 292v2341l-293 292h-1463l-292 -292v-2341l292 -292h439v-292h585z" />
    <glyph glyph-name="R" unicode="R" 
d="M585 0v2340h877v-585h-877l877 -1755h732l-585 1170h146l293 292v1171l-293 292h-1755v-2925h585z" />
    <glyph glyph-name="S" unicode="S" 
d="M1755 0l293 292v1170l-293 293h-1170v585h877v-292h586v585l-293 292h-1463l-292 -292v-1171l292 -292h1170v-585h-877v292h-585v-585l292 -292h1463z" />
    <glyph glyph-name="T" unicode="T" 
d="M1316 0v2340h732v585h-2048v-585h731v-2340h585z" />
    <glyph glyph-name="U" unicode="U" 
d="M1755 0l293 292v2633h-586v-2340h-877v2340h-585v-2633l292 -292h1463z" />
    <glyph glyph-name="V" unicode="V" horiz-adv-x="2560" 
d="M1609 0l731 2925h-585l-585 -2340l-585 2340h-585l731 -2925h878z" />
    <glyph glyph-name="W" unicode="W" horiz-adv-x="4022" 
d="M1609 0l292 1170l293 -1170h878l731 2925h-658l-512 -2048h-73l-366 1463h-585l-366 -1463h-73l-512 2048h-658l731 -2925h878z" />
    <glyph glyph-name="X" unicode="X" 
d="M585 0l439 877l438 -877h732l-732 1462l732 1463h-732l-438 -877l-439 877h-731l731 -1463l-731 -1462h731z" />
    <glyph glyph-name="Y" unicode="Y" 
d="M1316 0v1170l878 1755h-732l-438 -877l-439 877h-731l877 -1755v-1170h585z" />
    <glyph glyph-name="Z" unicode="Z" 
d="M2048 0v585h-1463l1463 1755v585h-2048v-585h1219l-1219 -1463v-877h2048z" />
    <glyph glyph-name="bracketleft" unicode="[" horiz-adv-x="1097" 
d="M877 0v585h-292v1755h292v585h-877v-2925h877z" />
    <glyph glyph-name="backslash" unicode="\" 
d="M2048 0l-1463 2925h-585l1462 -2925h586z" />
    <glyph glyph-name="bracketright" unicode="]" horiz-adv-x="1097" 
d="M877 0v2925h-877v-585h292v-1755h-292v-585h877z" />
    <glyph glyph-name="asciicircum" unicode="^" horiz-adv-x="1389" 
d="M292 2048l293 292l292 -292h293v292l-585 585l-585 -585v-292h292z" />
    <glyph glyph-name="underscore" unicode="_" 
d="M2048 0v292h-2048v-292h2048z" />
    <glyph glyph-name="grave" unicode="`" horiz-adv-x="1389" 
d="M1170 2048v292l-585 585h-585v-292l585 -585h585z" />
    <glyph glyph-name="a" unicode="a" 
d="M585 585v292h877v-292h-877zM1170 0l292 292v-292h586v2048l-293 292h-1463l-292 -292v-439h585v146h877v-293h-1170l-292 -292v-878l292 -292h878z" />
    <glyph glyph-name="b" unicode="b" 
d="M585 585v1170h877v-1170h-877zM585 0v292l292 -292h878l293 292v1756l-293 292h-878l-292 -292v877h-585v-2925h585z" />
    <glyph glyph-name="c" unicode="c" 
d="M1755 0l293 292v585h-586v-292h-877v1170h877v-293h586v586l-293 292h-1463l-292 -292v-1756l292 -292h1463z" />
    <glyph glyph-name="d" unicode="d" 
d="M585 585v1170h877v-1170h-877zM1170 0l292 292v-292h586v2925h-586v-877l-292 292h-878l-292 -292v-1756l292 -292h878z" />
    <glyph glyph-name="e" unicode="e" 
d="M585 1462v293h877v-293h-877zM2048 0v585h-1463v292h1463v1171l-293 292h-1463l-292 -292v-1756l292 -292h1756z" />
    <glyph glyph-name="f" unicode="f" horiz-adv-x="1682" 
d="M877 0v1755h585v585h-585v146h585v586h-877l-293 -293v-439h-292v-585h292v-1755h585z" />
    <glyph glyph-name="g" unicode="g" 
d="M585 585v1170h877v-1170h-877zM1755 -877l293 292v2925h-586v-292l-292 292h-878l-292 -292v-1756l292 -292h878l292 292v-584h-877v146h-585v-439l292 -292h1463z" />
    <glyph glyph-name="h" unicode="h" 
d="M585 0v1755h877v-1755h586v2048l-293 292h-878l-292 -292v877h-585v-2925h585z" />
    <glyph glyph-name="i" unicode="i" horiz-adv-x="804" 
d="M585 0v2340h-585v-2340h585zM585 2486v586h-585v-586h585z" />
    <glyph glyph-name="j" unicode="j" horiz-adv-x="804" 
d="M292 -585l293 293v2632h-585v-2925h292zM585 2486v586h-585v-586h585z" />
    <glyph glyph-name="k" unicode="k" 
d="M585 0v1097l877 -1097h761l-1062 1316l828 1024h-761l-643 -804v1389h-585v-2925h585z" />
    <glyph glyph-name="l" unicode="l" horiz-adv-x="804" 
d="M585 0v3072h-585v-3072h585z" />
    <glyph glyph-name="m" unicode="m" horiz-adv-x="3145" 
d="M585 0v1755h585v-1755h585v1755h585v-1755h585v2048l-292 292h-585l-293 -292l-293 292h-585l-292 -292v292h-585v-2340h585z" />
    <glyph glyph-name="n" unicode="n" 
d="M585 0v1755h877v-1755h586v2048l-293 292h-878l-292 -292v292h-585v-2340h585z" />
    <glyph glyph-name="o" unicode="o" 
d="M585 585v1170h877v-1170h-877zM1755 0l293 292v1756l-293 292h-1463l-292 -292v-1756l292 -292h1463z" />
    <glyph glyph-name="p" unicode="p" 
d="M585 585v1170h877v-1170h-877zM585 -877v1169l292 -292h878l293 292v1756l-293 292h-878l-292 -292v292h-585v-3217h585z" />
    <glyph glyph-name="q" unicode="q" 
d="M585 585v1170h877v-1170h-877zM2048 -877v3217h-586v-292l-292 292h-878l-292 -292v-1756l292 -292h878l292 292v-1169h586z" />
    <glyph glyph-name="r" unicode="r" horiz-adv-x="1974" 
d="M585 0v1755h585v-293h585v586l-293 292h-585l-292 -292v292h-585v-2340h585z" />
    <glyph glyph-name="s" unicode="s" 
d="M1755 0l293 292v878l-293 292h-1170v293h877v-146h586v439l-293 292h-1463l-292 -292v-878l292 -293h1170v-292h-877v146h-585v-439l292 -292h1463z" />
    <glyph glyph-name="t" unicode="t" horiz-adv-x="1682" 
d="M1462 0v585h-585v1170h585v585h-585v585h-585v-585h-292v-585h292v-1463l293 -292h877z" />
    <glyph glyph-name="u" unicode="u" 
d="M1170 0l292 292v-292h586v2340h-586v-1755h-877v1755h-585v-2048l292 -292h878z" />
    <glyph glyph-name="v" unicode="v" 
d="M1462 0l586 585v1755h-586v-1463l-292 -292h-293l-292 292v1463h-585v-1755l585 -585h877z" />
    <glyph glyph-name="w" unicode="w" horiz-adv-x="3730" 
d="M1462 0l293 1170l293 -1170h877l585 2340h-585l-439 -1755l-438 1755h-586l-438 -1755l-439 1755h-585l585 -2340h877z" />
    <glyph glyph-name="x" unicode="x" horiz-adv-x="1974" 
d="M438 0l293 585l293 -585h731l-585 1170l585 1170h-731l-293 -585l-293 585h-730l584 -1170l-584 -1170h730z" />
    <glyph glyph-name="y" unicode="y" 
d="M1755 -877l293 292v2925h-586v-1755h-877v1755h-585v-2048l292 -292h878l292 292v-584h-877v146h-585v-439l292 -292h1463z" />
    <glyph glyph-name="z" unicode="z" horiz-adv-x="1974" 
d="M1755 0v585h-927l927 1111v644h-1755v-585h975l-975 -1170v-585h1755z" />
    <glyph glyph-name="braceleft" unicode="{" horiz-adv-x="1389" 
d="M1170 0v585h-293v1755h293v585h-585l-293 -292v-878l-292 -293l292 -292v-878l293 -292h585z" />
    <glyph glyph-name="bar" unicode="|" horiz-adv-x="804" 
d="M585 -877v3802h-585v-3802h585z" />
    <glyph glyph-name="braceright" unicode="}" horiz-adv-x="1389" 
d="M585 0l292 292v878l293 292l-293 293v878l-292 292h-585v-585h292v-1755h-292v-585h585z" />
    <glyph glyph-name="asciitilde" unicode="~" horiz-adv-x="1974" 
d="M585 877v293l292 -293h585l293 293v585h-585v-293l-293 293h-585l-292 -293v-585h585z" />
    <glyph glyph-name="Agrave" unicode="&#xc0;" horiz-adv-x="2560" 
d="M877 1170l293 1170l292 -1170h-585zM585 0l146 585h878l146 -585h585l-731 2925h-878l-731 -2925h585zM1462 3072l-585 585h-585l585 -585h585z" />
    <glyph glyph-name="Aacute" unicode="&#xc1;" horiz-adv-x="2560" 
d="M877 1170l293 1170l292 -1170h-585zM585 0l146 585h878l146 -585h585l-731 2925h-878l-731 -2925h585zM1462 3072l586 585h-586l-585 -585h585z" />
    <glyph glyph-name="Acircumflex" unicode="&#xc2;" horiz-adv-x="2560" 
d="M877 1170l293 1170l292 -1170h-585zM585 0l146 585h878l146 -585h585l-731 2925h-878l-731 -2925h585zM877 3072l293 292l292 -292h586l-586 585h-585l-585 -585h585z" />
    <glyph glyph-name="Atilde" unicode="&#xc3;" horiz-adv-x="2560" 
d="M877 1170l293 1170l292 -1170h-585zM585 0l146 585h878l146 -585h585l-731 2925h-878l-731 -2925h585zM877 3072v292l293 -292h585l293 292v293h-586v-293l-292 293h-585l-293 -293v-292h585z" />
    <glyph glyph-name="Adieresis" unicode="&#xc4;" horiz-adv-x="2560" 
d="M877 1170l293 1170l292 -1170h-585zM585 0l146 585h878l146 -585h585l-731 2925h-878l-731 -2925h585zM1024 3072v585h-586v-585h586zM1901 3072v585h-585v-585h585z" />
    <glyph glyph-name="Aring" unicode="&#xc5;" horiz-adv-x="2560" 
d="M877 1170l293 1170l292 -1170h-585zM877 2925v147h585v-147h-585zM585 0l146 585h878l146 -585h585l-585 2340l293 293v731l-293 293h-1170l-293 -293v-731l293 -293l-585 -2340h585z" />
    <glyph glyph-name="AE" unicode="&#xc6;" horiz-adv-x="3145" 
d="M877 1170l293 1170h292v-1170h-585zM585 0l146 585h731v-585h1463v585h-877v585h877v585h-877v585h877v585h-2194l-731 -2925h585z" />
    <glyph glyph-name="Ccedilla" unicode="&#xc7;" 
d="M1755 -877v439l-293 292h-146v146h439l293 292v585h-586v-292h-877v1755h877v-585h586v878l-293 292h-1463l-292 -292v-2341l292 -292h439v-292l439 -439v-146h585z" />
    <glyph glyph-name="Egrave" unicode="&#xc8;" horiz-adv-x="1974" 
d="M1755 0v585h-1170v585h1170v585h-1170v585h1170v585h-1755v-2925h1755zM1170 3072l-585 585h-585l585 -585h585z" />
    <glyph glyph-name="Eacute" unicode="&#xc9;" horiz-adv-x="1974" 
d="M1755 0v585h-1170v585h1170v585h-1170v585h1170v585h-1755v-2925h1755zM1170 3072l585 585h-585l-585 -585h585z" />
    <glyph glyph-name="Ecircumflex" unicode="&#xca;" horiz-adv-x="1974" 
d="M1755 0v585h-1170v585h1170v585h-1170v585h1170v585h-1755v-2925h1755zM585 3072l292 292l293 -292h585l-585 585h-585l-585 -585h585z" />
    <glyph glyph-name="Edieresis" unicode="&#xcb;" horiz-adv-x="1974" 
d="M1755 0v585h-1170v585h1170v585h-1170v585h1170v585h-1755v-2925h1755zM731 3072v585h-585v-585h585zM1609 3072v585h-585v-585h585z" />
    <glyph glyph-name="Igrave" unicode="&#xcc;" horiz-adv-x="804" 
d="M585 0v2925h-585v-2925h585zM585 3072l-585 585h-585l585 -585h585z" />
    <glyph glyph-name="Iacute" unicode="&#xcd;" horiz-adv-x="804" 
d="M585 0v2925h-585v-2925h585zM585 3072l585 585h-585l-585 -585h585z" />
    <glyph glyph-name="Icircumflex" unicode="&#xce;" horiz-adv-x="804" 
d="M585 0v2925h-585v-2925h585zM0 3072l292 292l293 -292h585l-585 585h-585l-585 -585h585z" />
    <glyph glyph-name="Idieresis" unicode="&#xcf;" horiz-adv-x="804" 
d="M585 0v2925h-585v-2925h585zM146 3072v585h-584v-585h584zM1024 3072v585h-586v-585h586z" />
    <glyph glyph-name="Eth" unicode="&#xd0;" horiz-adv-x="2560" 
d="M877 585v585h293v585h-293v585h878v-1755h-878zM2048 0l292 292v2341l-292 292h-1756v-1170h-292v-585h292v-1170h1756z" />
    <glyph glyph-name="Ntilde" unicode="&#xd1;" 
d="M585 0v1755l877 -1755h586v2925h-586v-1755l-877 1755h-585v-2925h585zM731 3072v292l293 -292h585l292 292v293h-585v-293l-292 293h-586l-292 -293v-292h585z" />
    <glyph glyph-name="Ograve" unicode="&#xd2;" 
d="M585 585v1755h877v-1755h-877zM1755 0l293 292v2341l-293 292h-1463l-292 -292v-2341l292 -292h1463zM1316 3072l-585 585h-585l585 -585h585z" />
    <glyph glyph-name="Oacute" unicode="&#xd3;" 
d="M585 585v1755h877v-1755h-877zM1755 0l293 292v2341l-293 292h-1463l-292 -292v-2341l292 -292h1463zM1316 3072l585 585h-585l-585 -585h585z" />
    <glyph glyph-name="Ocircumflex" unicode="&#xd4;" 
d="M585 585v1755h877v-1755h-877zM1755 0l293 292v2341l-293 292h-1463l-292 -292v-2341l292 -292h1463zM731 3072l293 292l292 -292h585l-585 585h-585l-585 -585h585z" />
    <glyph glyph-name="Otilde" unicode="&#xd5;" 
d="M585 585v1755h877v-1755h-877zM1755 0l293 292v2341l-293 292h-1463l-292 -292v-2341l292 -292h1463zM731 3072v292l293 -292h585l292 292v293h-585v-293l-292 293h-586l-292 -293v-292h585z" />
    <glyph glyph-name="Odieresis" unicode="&#xd6;" 
d="M585 585v1755h877v-1755h-877zM1755 0l293 292v2341l-293 292h-1463l-292 -292v-2341l292 -292h1463zM877 3072v585h-585v-585h585zM1755 3072v585h-585v-585h585z" />
    <glyph glyph-name="Oslash" unicode="&#xd8;" 
d="M585 585v1755h877v-1755h-877zM1755 0l293 292v2341l-293 292h-1463l-292 -292v-2341l292 -292h1463z" />
    <glyph glyph-name="Ugrave" unicode="&#xd9;" 
d="M1755 0l293 292v2633h-586v-2340h-877v2340h-585v-2633l292 -292h1463zM1316 3072l-585 585h-585l585 -585h585z" />
    <glyph glyph-name="Uacute" unicode="&#xda;" 
d="M1755 0l293 292v2633h-586v-2340h-877v2340h-585v-2633l292 -292h1463zM1316 3072l585 585h-585l-585 -585h585z" />
    <glyph glyph-name="Ucircumflex" unicode="&#xdb;" 
d="M1755 0l293 292v2633h-586v-2340h-877v2340h-585v-2633l292 -292h1463zM731 3072l293 292l292 -292h585l-585 585h-585l-585 -585h585z" />
    <glyph glyph-name="Udieresis" unicode="&#xdc;" 
d="M1755 0l293 292v2633h-586v-2340h-877v2340h-585v-2633l292 -292h1463zM877 3072v585h-585v-585h585zM1755 3072v585h-585v-585h585z" />
    <glyph glyph-name="Yacute" unicode="&#xdd;" horiz-adv-x="2560" 
d="M1316 0v1170l878 1755h-732l-438 -877l-439 877h-731l877 -1755v-1170h585z" />
    <glyph glyph-name="agrave" unicode="&#xe0;" 
d="M585 585v292h877v-292h-877zM1170 0l292 292v-292h586v2048l-293 292h-1463l-292 -292v-439h585v146h877v-293h-1170l-292 -292v-878l292 -292h878zM1316 2486l-585 586h-585l585 -586h585z" />
    <glyph glyph-name="aacute" unicode="&#xe1;" 
d="M585 585v292h877v-292h-877zM1170 0l292 292v-292h586v2048l-293 292h-1463l-292 -292v-439h585v146h877v-293h-1170l-292 -292v-878l292 -292h878zM1316 2486l585 586h-585l-585 -586h585z" />
    <glyph glyph-name="acircumflex" unicode="&#xe2;" 
d="M585 585v292h877v-292h-877zM1170 0l292 292v-292h586v2048l-293 292h-1463l-292 -292v-439h585v146h877v-293h-1170l-292 -292v-878l292 -292h878z" />
    <glyph glyph-name="atilde" unicode="&#xe3;" 
d="M585 585v292h877v-292h-877zM1170 0l292 292v-292h586v2048l-293 292h-1463l-292 -292v-439h585v146h877v-293h-1170l-292 -292v-878l292 -292h878z" />
    <glyph glyph-name="adieresis" unicode="&#xe4;" 
d="M585 585v292h877v-292h-877zM1170 0l292 292v-292h586v2048l-293 292h-1463l-292 -292v-439h585v146h877v-293h-1170l-292 -292v-878l292 -292h878z" />
    <glyph glyph-name="aring" unicode="&#xe5;" 
d="M585 585v292h877v-292h-877zM1170 0l292 292v-292h586v2048l-293 292h-1463l-292 -292v-439h585v146h877v-293h-1170l-292 -292v-878l292 -292h878z" />
    <glyph glyph-name="ae" unicode="&#xe6;" horiz-adv-x="3145" 
d="M585 585v292h585v-292h-585zM1755 1462v293h585v-293h-585zM2925 0v585h-1170v292h1170v1171l-292 292h-2341l-292 -292v-439h585v146h585v-293h-878l-292 -292v-878l292 -292h2633z" />
    <glyph glyph-name="ccedilla" unicode="&#xe7;" 
d="M1755 -877v439l-293 292h-146v146h439l293 292v585h-586v-292h-877v1170h877v-293h586v586l-293 292h-1463l-292 -292v-1756l292 -292h439v-292l439 -439v-146h585z" />
    <glyph glyph-name="egrave" unicode="&#xe8;" 
d="M585 1462v293h877v-293h-877zM2048 0v585h-1463v292h1463v1171l-293 292h-1463l-292 -292v-1756l292 -292h1756zM1316 2486l-585 586h-585l585 -586h585z" />
    <glyph glyph-name="eacute" unicode="&#xe9;" 
d="M585 1462v293h877v-293h-877zM2048 0v585h-1463v292h1463v1171l-293 292h-1463l-292 -292v-1756l292 -292h1756z" />
    <glyph glyph-name="ecircumflex" unicode="&#xea;" 
d="M585 1462v293h877v-293h-877zM2048 0v585h-1463v292h1463v1171l-293 292h-1463l-292 -292v-1756l292 -292h1756z" />
    <glyph glyph-name="edieresis" unicode="&#xeb;" 
d="M585 1462v293h877v-293h-877zM2048 0v585h-1463v292h1463v1171l-293 292h-1463l-292 -292v-1756l292 -292h1756z" />
    <glyph glyph-name="igrave" unicode="&#xec;" horiz-adv-x="804" 
d="M585 0v2340h-585v-2340h585zM585 2486l-585 586h-585l585 -586h585z" />
    <glyph glyph-name="iacute" unicode="&#xed;" horiz-adv-x="804" 
d="M585 0v2340h-585v-2340h585zM585 2486v586h-585v-586h585z" />
    <glyph glyph-name="icircumflex" unicode="&#xee;" horiz-adv-x="804" 
d="M585 0v2340h-585v-2340h585zM585 2486v586h-585v-586h585z" />
    <glyph glyph-name="idieresis" unicode="&#xef;" horiz-adv-x="804" 
d="M585 0v2340h-585v-2340h585zM585 2486v586h-585v-586h585z" />
    <glyph glyph-name="ntilde" unicode="&#xf1;" 
d="M585 0v1755h877v-1755h586v2048l-293 292h-878l-292 -292v292h-585v-2340h585zM731 2486v293l293 -293h585l292 293v293h-585v-293l-292 293h-586l-292 -293v-293h585z" />
    <glyph glyph-name="ograve" unicode="&#xf2;" 
d="M585 585v1170h877v-1170h-877zM1755 0l293 292v1756l-293 292h-1463l-292 -292v-1756l292 -292h1463zM1316 2486l-585 586h-585l585 -586h585z" />
    <glyph glyph-name="oacute" unicode="&#xf3;" 
d="M585 585v1170h877v-1170h-877zM1755 0l293 292v1756l-293 292h-1463l-292 -292v-1756l292 -292h1463z" />
    <glyph glyph-name="ocircumflex" unicode="&#xf4;" 
d="M585 585v1170h877v-1170h-877zM1755 0l293 292v1756l-293 292h-1463l-292 -292v-1756l292 -292h1463z" />
    <glyph glyph-name="otilde" unicode="&#xf5;" 
d="M585 585v1170h877v-1170h-877zM1755 0l293 292v1756l-293 292h-1463l-292 -292v-1756l292 -292h1463z" />
    <glyph glyph-name="odieresis" unicode="&#xf6;" 
d="M585 585v1170h877v-1170h-877zM1755 0l293 292v1756l-293 292h-1463l-292 -292v-1756l292 -292h1463z" />
    <glyph glyph-name="oslash" unicode="&#xf8;" 
d="M585 585v1170h877v-1170h-877zM1755 0l293 292v1756l-293 292h-1463l-292 -292v-1756l292 -292h1463z" />
    <glyph glyph-name="ugrave" unicode="&#xf9;" 
d="M1170 0l292 292v-292h586v2340h-586v-1755h-877v1755h-585v-2048l292 -292h878zM1316 2486l-585 586h-585l585 -586h585z" />
    <glyph glyph-name="uacute" unicode="&#xfa;" 
d="M1170 0l292 292v-292h586v2340h-586v-1755h-877v1755h-585v-2048l292 -292h878z" />
    <glyph glyph-name="ucircumflex" unicode="&#xfb;" 
d="M1170 0l292 292v-292h586v2340h-586v-1755h-877v1755h-585v-2048l292 -292h878z" />
    <glyph glyph-name="udieresis" unicode="&#xfc;" 
d="M1170 0l292 292v-292h586v2340h-586v-1755h-877v1755h-585v-2048l292 -292h878z" />
    <glyph glyph-name="ydieresis" unicode="&#xff;" 
d="M1755 -877l293 292v2925h-586v-1755h-877v1755h-585v-2048l292 -292h878l292 292v-584h-877v146h-585v-439l292 -292h1463z" />
    <glyph glyph-name="Uring" unicode="&#x16e;" 
d="M1755 0l293 292v2633h-586v-2340h-877v2340h-585v-2633l292 -292h1463z" />
    <glyph glyph-name="uring" unicode="&#x16f;" 
d="M1170 0l292 292v-292h586v2340h-586v-1755h-877v1755h-585v-2048l292 -292h878z" />
    <glyph glyph-name="Ydieresis" unicode="&#x178;" 
d="M1316 0v1170l878 1755h-732l-438 -877l-439 877h-731l877 -1755v-1170h585z" />
    <glyph glyph-name="uni0400" unicode="&#x400;" horiz-adv-x="1974" 
d="M1755 0v585h-1170v585h1170v585h-1170v585h1170v585h-1755v-2925h1755z" />
    <glyph glyph-name="uni0401" unicode="&#x401;" horiz-adv-x="1974" 
d="M1755 0v585h-1170v585h1170v585h-1170v585h1170v585h-1755v-2925h1755zM731 3072v585h-585v-585h585zM1609 3072v585h-585v-585h585z" />
    <glyph glyph-name="uni0410" unicode="&#x410;" horiz-adv-x="2560" 
d="M877 1170l293 1170l292 -1170h-585zM585 0l146 585h878l146 -585h585l-731 2925h-878l-731 -2925h585z" />
    <glyph glyph-name="uni0411" unicode="&#x411;" 
d="M585 585v877h877v-877h-877zM1755 0l293 292v1463l-293 293h-1170v292h1463v585h-2048v-2925h1755z" />
    <glyph glyph-name="uni0412" unicode="&#x412;" 
d="M585 585v585h877v-585h-877zM585 1755v585h877v-585h-877zM1755 0l293 292v878l-293 292l293 293v878l-293 292h-1755v-2925h1755z" />
    <glyph glyph-name="uni0413" unicode="&#x413;" 
d="M585 0v2340h1463v585h-2048v-2925h585z" />
    <glyph glyph-name="uni0414" unicode="&#x414;" 
d="M585 585l292 292v1463h585v-1755h-877zM585 -292v292h877v-292h586v3217h-1756v-1901l-292 -293v-1023h585z" />
    <glyph glyph-name="uni0415" unicode="&#x415;" horiz-adv-x="1974" 
d="M1755 0v585h-1170v585h1170v585h-1170v585h1170v585h-1755v-2925h1755z" />
    <glyph glyph-name="uni0416" unicode="&#x416;" horiz-adv-x="2560" 
d="M585 0l292 585v-585h585v585l293 -585h731l-731 1462l731 1463h-731l-293 -585v585h-585v-585l-292 585h-731l731 -1463l-731 -1462h731z" />
    <glyph glyph-name="uni0417" unicode="&#x417;" 
d="M1755 0l293 292v878l-293 292l293 293v878l-293 292h-1755v-585h1462v-585h-877v-585h877v-585h-1462v-585h1755z" />
    <glyph glyph-name="uni0418" unicode="&#x418;" 
d="M585 0l877 1755v-1755h586v2925h-586l-877 -1755v1755h-585v-2925h585z" />
    <glyph glyph-name="uni0419" unicode="&#x419;" 
d="M585 0l877 1755v-1755h586v2925h-586l-877 -1755v1755h-585v-2925h585zM1462 3072l293 292v293h-585v-293h-293v293h-585v-293l293 -292h877z" />
    <glyph glyph-name="uni041A" unicode="&#x41a;" 
d="M585 0v1170h167l669 -1170h627v585h-335l-501 877l501 878h335v585h-627l-669 -1170h-167v1170h-585v-2925h585z" />
    <glyph glyph-name="uni041B" unicode="&#x41b;" 
d="M292 0l585 585v1755h585v-2340h586v2925h-1756v-2194l-292 -293v-438h292z" />
    <glyph glyph-name="uni041C" unicode="&#x41c;" horiz-adv-x="3145" 
d="M585 0v1755l877 -1755l878 1755v-1755h585v2925h-585l-878 -1755l-877 1755h-585v-2925h585z" />
    <glyph glyph-name="uni041D" unicode="&#x41d;" 
d="M585 0v1170h877v-1170h586v2925h-586v-1170h-877v1170h-585v-2925h585z" />
    <glyph glyph-name="uni041E" unicode="&#x41e;" 
d="M585 585v1755h877v-1755h-877zM1755 0l293 292v2341l-293 292h-1463l-292 -292v-2341l292 -292h1463z" />
    <glyph glyph-name="uni041F" unicode="&#x41f;" 
d="M585 0v2340h877v-2340h586v2925h-2048v-2925h585z" />
    <glyph glyph-name="uni0420" unicode="&#x420;" 
d="M585 1755v585h877v-585h-877zM585 0v1170h1170l293 292v1171l-293 292h-1755v-2925h585z" />
    <glyph glyph-name="uni0421" unicode="&#x421;" 
d="M1755 0l293 292v585h-586v-292h-877v1755h877v-585h586v878l-293 292h-1463l-292 -292v-2341l292 -292h1463z" />
    <glyph glyph-name="uni0422" unicode="&#x422;" 
d="M1316 0v2340h732v585h-2048v-585h731v-2340h585z" />
    <glyph glyph-name="uni0423" unicode="&#x423;" horiz-adv-x="2560" 
d="M731 0l1463 2925h-732l-438 -877l-439 877h-731l804 -1609l-658 -1316h731z" />
    <glyph glyph-name="uni0424" unicode="&#x424;" 
d="M585 877v1171h146v-1171h-146zM1316 877v1171h146v-1171h-146zM1316 0v292h439l293 293v1755l-293 293h-439v292h-585v-292h-439l-292 -293v-1755l292 -293h439v-292h585z" />
    <glyph glyph-name="uni0425" unicode="&#x425;" horiz-adv-x="2560" 
d="M585 0l439 877l438 -877h732l-732 1462l732 1463h-732l-438 -877l-439 877h-731l731 -1463l-731 -1462h731z" />
    <glyph glyph-name="uni0426" unicode="&#x426;" 
d="M2048 -292v3217h-586v-2340h-877v2340h-585v-2925h1462v-292h586z" />
    <glyph glyph-name="uni0427" unicode="&#x427;" 
d="M2048 0v2925h-586v-1170h-877v1170h-585v-1463l292 -292h1170v-1170h586z" />
    <glyph glyph-name="uni0428" unicode="&#x428;" horiz-adv-x="3145" 
d="M2925 0v2925h-585v-2340h-585v2340h-585v-2340h-585v2340h-585v-2925h2925z" />
    <glyph glyph-name="uni0429" unicode="&#x429;" horiz-adv-x="3145" 
d="M2925 -292v3217h-585v-2340h-585v2340h-585v-2340h-585v2340h-585v-2925h2340v-292h585z" />
    <glyph glyph-name="uni042A" unicode="&#x42a;" horiz-adv-x="2560" 
d="M877 585v1170h878v-1170h-878zM2048 0l292 292v1756l-292 292h-1171v585h-877v-585h292v-2340h1756z" />
    <glyph glyph-name="uni042B" unicode="&#x42b;" horiz-adv-x="2998" 
d="M585 585v1170h877v-1170h-877zM1755 0l293 292v1756l-293 292h-1170v585h-585v-2925h1755zM2779 0v2925h-585v-2925h585z" />
    <glyph glyph-name="uni042C" unicode="&#x42c;" 
d="M585 585v1170h877v-1170h-877zM1755 0l293 292v1756l-293 292h-1170v585h-585v-2925h1755z" />
    <glyph glyph-name="uni042D" unicode="&#x42d;" 
d="M1755 0l293 292v2341l-293 292h-1755v-585h1462v-585h-877v-585h877v-585h-1462v-585h1755z" />
    <glyph glyph-name="uni042E" unicode="&#x42e;" horiz-adv-x="3145" 
d="M1462 585v1755h878v-1755h-878zM585 0v1170h292v-878l293 -292h1463l292 292v2341l-292 292h-1463l-293 -292v-878h-292v1170h-585v-2925h585z" />
    <glyph glyph-name="uni042F" unicode="&#x42f;" 
d="M585 0l877 1755h-877v585h877v-2340h586v2925h-1756l-292 -292v-1171l292 -292h146l-584 -1170h731z" />
    <glyph glyph-name="uni0430" unicode="&#x430;" 
d="M585 585v292h877v-292h-877zM1170 0l292 292v-292h586v2048l-293 292h-1463l-292 -292v-439h585v146h877v-293h-1170l-292 -292v-878l292 -292h878z" />
    <glyph glyph-name="uni0431" unicode="&#x431;" 
d="M585 585v877h877v-877h-877zM1755 0l293 292v1463l-293 293h-1170v292h1170l293 293v585h-586v-293h-1170l-292 -292v-2341l292 -292h1463z" />
    <glyph glyph-name="uni0432" unicode="&#x432;" 
d="M585 585v292h877v-292h-877zM585 1462v293h877v-293h-877zM1755 0l293 292v585l-293 293l293 292v586l-293 292h-1755v-2340h1755z" />
    <glyph glyph-name="uni0433" unicode="&#x433;" horiz-adv-x="1974" 
d="M585 0v1755h1170v585h-1755v-2340h585z" />
    <glyph glyph-name="uni0434" unicode="&#x434;" 
d="M585 585l292 292v878h585v-1170h-877zM585 -292v292h877v-292h586v2632h-1756v-1316l-292 -293v-1023h585z" />
    <glyph glyph-name="uni0435" unicode="&#x435;" 
d="M585 1462v293h877v-293h-877zM2048 0v585h-1463v292h1463v1171l-293 292h-1463l-292 -292v-1756l292 -292h1756z" />
    <glyph glyph-name="uni0436" unicode="&#x436;" horiz-adv-x="2560" 
d="M585 0l292 585v-585h585v585l293 -585h731l-585 1170l585 1170h-731l-293 -585v585h-585v-585l-292 585h-731l584 -1170l-584 -1170h731z" />
    <glyph glyph-name="uni0437" unicode="&#x437;" 
d="M1755 0l293 292v585l-293 293l293 292v586l-293 292h-1755v-585h1462v-293h-877v-585h877v-292h-1462v-585h1755z" />
    <glyph glyph-name="uni0438" unicode="&#x438;" 
d="M731 0l731 1462v-1462h586v2340h-732l-731 -1463v1463h-585v-2340h731z" />
    <glyph glyph-name="uni0439" unicode="&#x439;" 
d="M731 0l731 1462v-1462h586v2340h-732l-731 -1463v1463h-585v-2340h731zM1462 2486l293 293v293h-585v-293h-293v293h-585v-293l293 -293h877z" />
    <glyph glyph-name="uni043A" unicode="&#x43a;" 
d="M585 0v877h459l502 -877h502v585h-209l-335 585l335 585h209v585h-502l-502 -878h-459v878h-585v-2340h585z" />
    <glyph glyph-name="uni043B" unicode="&#x43b;" 
d="M292 0l585 585v1170h585v-1755h586v2340h-1756v-1609l-292 -293v-438h292z" />
    <glyph glyph-name="uni043C" unicode="&#x43c;" horiz-adv-x="2560" 
d="M585 0v1170l585 -1170l585 1170v-1170h585v2340h-585l-585 -1170l-585 1170h-585v-2340h585z" />
    <glyph glyph-name="uni043D" unicode="&#x43d;" 
d="M585 0v877h877v-877h586v2340h-586v-878h-877v878h-585v-2340h585z" />
    <glyph glyph-name="uni043E" unicode="&#x43e;" 
d="M585 585v1170h877v-1170h-877zM1755 0l293 292v1756l-293 292h-1463l-292 -292v-1756l292 -292h1463z" />
    <glyph glyph-name="uni043F" unicode="&#x43f;" 
d="M585 0v1755h877v-1755h586v2340h-2048v-2340h585z" />
    <glyph glyph-name="uni0440" unicode="&#x440;" 
d="M585 585v1170h877v-1170h-877zM585 -877v1169l292 -292h878l293 292v1756l-293 292h-878l-292 -292v292h-585v-3217h585z" />
    <glyph glyph-name="uni0441" unicode="&#x441;" 
d="M1755 0l293 292v585h-586v-292h-877v1170h877v-293h586v586l-293 292h-1463l-292 -292v-1756l292 -292h1463z" />
    <glyph glyph-name="uni0442" unicode="&#x442;" horiz-adv-x="1974" 
d="M1170 0v1755h585v585h-1755v-585h585v-1755h585z" />
    <glyph glyph-name="uni0443" unicode="&#x443;" 
d="M1755 -877l293 292v2925h-586v-1755h-877v1755h-585v-2048l292 -292h878l292 292v-584h-877v146h-585v-439l292 -292h1463z" />
    <glyph glyph-name="uni0444" unicode="&#x444;" 
d="M585 877v585h146v-585h-146zM1316 877v585h146v-585h-146zM1316 0v292h439l293 293v1170l-293 293h-439v292h-585v-292h-439l-292 -293v-1170l292 -293h439v-292h585z" />
    <glyph glyph-name="uni0445" unicode="&#x445;" horiz-adv-x="2560" 
d="M585 0l439 877l438 -877h732l-585 1170l585 1170h-732l-438 -878l-439 878h-731l584 -1170l-584 -1170h731z" />
    <glyph glyph-name="uni0446" unicode="&#x446;" 
d="M2048 -292v2632h-586v-1755h-877v1755h-585v-2340h1462v-292h586z" />
    <glyph glyph-name="uni0447" unicode="&#x447;" 
d="M2048 0v2340h-586v-878h-877v878h-585v-1170l292 -293h1170v-877h586z" />
    <glyph glyph-name="uni0448" unicode="&#x448;" horiz-adv-x="3145" 
d="M2925 0v2340h-585v-1755h-585v1755h-585v-1755h-585v1755h-585v-2340h2925z" />
    <glyph glyph-name="uni0449" unicode="&#x449;" horiz-adv-x="3145" 
d="M2925 -292v2632h-585v-1755h-585v1755h-585v-1755h-585v1755h-585v-2340h2340v-292h585z" />
    <glyph glyph-name="uni044A" unicode="&#x44a;" horiz-adv-x="2560" 
d="M877 585v585h878v-585h-878zM2048 0l292 292v1170l-292 293h-1171v585h-877v-585h292v-1755h1756z" />
    <glyph glyph-name="uni044B" unicode="&#x44b;" horiz-adv-x="2998" 
d="M585 585v585h877v-585h-877zM1755 0l293 292v1170l-293 293h-1170v585h-585v-2340h1755zM2779 0v2340h-585v-2340h585z" />
    <glyph glyph-name="uni044C" unicode="&#x44c;" 
d="M585 585v585h877v-585h-877zM1755 0l293 292v1170l-293 293h-1170v585h-585v-2340h1755z" />
    <glyph glyph-name="uni044D" unicode="&#x44d;" 
d="M1755 0l293 292v1756l-293 292h-1755v-585h1462v-293h-877v-585h877v-292h-1462v-585h1755z" />
    <glyph glyph-name="uni044E" unicode="&#x44e;" horiz-adv-x="3145" 
d="M1462 585v1170h878v-1170h-878zM585 0v877h292v-585l293 -292h1463l292 292v1756l-292 292h-1463l-293 -292v-586h-292v878h-585v-2340h585z" />
    <glyph glyph-name="uni044F" unicode="&#x44f;" 
d="M731 0l731 1462h-877v293h877v-1755h586v2340h-1756l-292 -292v-878l292 -293h146l-438 -877h731z" />
    <glyph glyph-name="uni0451" unicode="&#x451;" 
d="M585 1462v293h877v-293h-877zM2048 0v585h-1463v292h1463v1171l-293 292h-1463l-292 -292v-1756l292 -292h1756zM877 2486v586h-585v-586h585zM1755 2486v586h-585v-586h585z" />
    <glyph glyph-name="quoteleft" unicode="&#x2018;" horiz-adv-x="804" 
d="M585 2048v585h-293v292l-292 -292v-585h585z" />
    <glyph glyph-name="quoteright" unicode="&#x2019;" horiz-adv-x="804" 
d="M292 2048l293 292v585h-585v-585h292v-292v0z" />
    <glyph glyph-name="quotedblleft" unicode="&#x201c;" horiz-adv-x="1536" 
d="M585 2048v585h-293v292l-292 -292v-585h585zM1316 2048v585h-292v292l-293 -292v-585h585z" />
    <glyph glyph-name="quotedblright" unicode="&#x201d;" horiz-adv-x="1682" 
d="M292 2048l293 292v585h-585v-585h292v-292v0zM1024 2048l292 292v585h-585v-585h293v-292v0z" />
  </font>
</defs>
</svg>
