<svg width="20" height="20" viewBox="0 0 20 20" fill="none" xmlns="http://www.w3.org/2000/svg">
<g clip-path="url(#clip0)">
<path d="M11.3643 19.9609H8.16055C7.62543 19.9609 7.19012 19.5258 7.19012 18.9908V11.7667H5.32101C4.78589 11.7667 4.35059 11.3313 4.35059 10.7965V7.70096C4.35059 7.16599 4.78589 6.7308 5.32101 6.7308H7.19012V5.18066C7.19012 3.64365 7.67289 2.33597 8.58608 1.39923C9.50339 0.458221 10.7853 -0.0390625 12.2933 -0.0390625L14.7366 -0.0350952C15.2708 -0.0341797 15.7054 0.401001 15.7054 0.935059V3.8092C15.7054 4.34418 15.2702 4.77936 14.7353 4.77936L13.0902 4.77997C12.5885 4.77997 12.4608 4.88052 12.4334 4.91135C12.3884 4.96246 12.3348 5.10696 12.3348 5.50598V6.73065H14.6116C14.783 6.73065 14.9491 6.77292 15.0918 6.85257C15.3997 7.02454 15.5911 7.3497 15.5911 7.70111L15.5898 10.7967C15.5898 11.3313 15.1545 11.7665 14.6194 11.7665H12.3348V18.9908C12.3348 19.5258 11.8994 19.9609 11.3643 19.9609ZM8.36294 18.7885H11.1619V11.2418C11.1619 10.8846 11.4526 10.594 11.8098 10.594H14.417L14.4181 7.90329H11.8096C11.4525 7.90329 11.1619 7.61276 11.1619 7.25555V5.50598C11.1619 5.04791 11.2084 4.52698 11.5543 4.13544C11.9722 3.66211 12.6308 3.60748 13.0899 3.60748L14.5326 3.60687V1.13709L12.2924 1.13342C9.86894 1.13342 8.36294 2.68433 8.36294 5.18066V7.25555C8.36294 7.61261 8.07233 7.90329 7.71517 7.90329H5.5234V10.594H7.71517C8.07233 10.594 8.36294 10.8846 8.36294 11.2418V18.7885ZM14.7343 1.13739H14.7345H14.7343Z" fill="white"/>
</g>
<defs>
<clipPath id="clip0">
<rect width="19.9665" height="20" fill="white" transform="translate(0.0332031)"/>
</clipPath>
</defs>
</svg>
