<svg width="255" height="47" viewBox="0 0 255 47" fill="none" xmlns="http://www.w3.org/2000/svg">
<path d="M34.276 19.2577C37.012 19.2577 39.0988 19.9662 40.5363 21.3833C41.997 22.7755 42.7274 24.8886 42.7274 27.7227V39.3947H38.6234V36.9708C38.0902 37.841 37.325 38.5122 36.328 38.9845C35.3542 39.432 34.1717 39.6558 32.7805 39.6558C31.3893 39.6558 30.172 39.4072 29.1286 38.91C28.0853 38.3879 27.2737 37.6794 26.6941 36.7844C26.1376 35.8645 25.8594 34.8328 25.8594 33.6892C25.8594 31.8993 26.4738 30.4698 27.7027 29.4008C28.9547 28.3069 30.914 27.76 33.5804 27.76H38.38V27.4617C38.38 26.0695 37.9858 25.0005 37.1975 24.2547C36.4323 23.5088 35.2846 23.1359 33.7543 23.1359C32.711 23.1359 31.6791 23.31 30.6589 23.658C29.6619 24.0061 28.8156 24.4908 28.12 25.1124L26.4158 21.7189C27.3897 20.9233 28.5606 20.3143 29.9286 19.8916C31.2965 19.469 32.7457 19.2577 34.276 19.2577ZM33.6848 36.2623C34.7745 36.2623 35.7368 36.0013 36.5715 35.4792C37.4294 34.9323 38.0322 34.1616 38.38 33.1672V30.8551H33.8935C31.3893 30.8551 30.1372 31.7377 30.1372 33.5028C30.1372 34.348 30.4502 35.0193 31.0763 35.5165C31.7023 36.0137 32.5718 36.2623 33.6848 36.2623ZM55.8279 31.4145H52.4543V39.3947H48.1069V19.4814H52.4543V27.5363H55.9322L61.4274 19.4814H66.0878L59.3406 29.0652L66.5399 39.3947H61.4274L55.8279 31.4145ZM77.4464 39.6558C75.522 39.6558 73.7946 39.2207 72.2643 38.3506C70.734 37.4805 69.5399 36.2747 68.682 34.7334C67.8242 33.1672 67.3952 31.4021 67.3952 29.4381C67.3952 27.4741 67.8242 25.7214 68.682 24.1801C69.5399 22.6387 70.7224 21.433 72.2295 20.5629C73.7598 19.6928 75.4988 19.2577 77.4464 19.2577C79.2781 19.2577 80.878 19.6555 82.246 20.451C83.6371 21.2465 84.6805 22.3901 85.3761 23.8818L82.0373 25.97C81.504 25.0502 80.8316 24.3665 80.0201 23.919C79.2318 23.4467 78.3623 23.2105 77.4116 23.2105C75.7886 23.2105 74.4438 23.7823 73.3772 24.9259C72.3107 26.0446 71.7774 27.5487 71.7774 29.4381C71.7774 31.3275 72.2991 32.844 73.3425 33.9876C74.409 35.1063 75.7654 35.6657 77.4116 35.6657C78.3623 35.6657 79.2318 35.4419 80.0201 34.9944C80.8316 34.5221 81.504 33.826 82.0373 32.9061L85.3761 34.9944C84.6573 36.4861 83.6024 37.6421 82.2112 38.4625C80.8432 39.258 79.2549 39.6558 77.4464 39.6558ZM89.2036 19.4814H93.551V32.6078L103.811 19.4814H107.776V39.3947H103.428V26.2684L93.2032 39.3947H89.2036V19.4814Z" fill="black"/>
<path d="M18.3462 8.37552H30.1693V2.30896H0V8.37552H11.7721V40.9143H18.3462V8.37552Z" fill="black"/>
<path d="M237.659 29.9989C241.704 29.9989 244.984 33.5794 244.984 38.0002C244.984 38.3431 244.959 38.6786 244.92 39.0067C244.466 42.9534 241.392 46.0036 237.66 46.0036C233.824 46.0036 230.682 42.784 230.364 38.6839C230.346 38.4574 230.332 38.2309 230.332 38.0002C230.331 33.5794 233.611 29.9989 237.659 29.9989ZM241.328 34.9849L239.833 36.618C239.95 36.836 240.04 37.072 240.098 37.3218H242.205C242.095 36.4486 241.79 35.6548 241.328 34.9849ZM242.212 38.7061H240.091C240.031 38.9527 239.943 39.1866 239.826 39.4004L241.324 41.0367C241.785 40.3709 242.1 39.575 242.212 38.7061ZM238.292 42.9714C239.085 42.8528 239.808 42.512 240.417 42.0104L238.928 40.3826C238.732 40.5075 238.517 40.5996 238.292 40.6641V42.9714ZM238.292 35.3384C238.523 35.404 238.739 35.5046 238.939 35.6337L240.433 34.0027C239.819 33.4947 239.091 33.156 238.292 33.0364V35.3384ZM237.024 33.0364C236.224 33.156 235.496 33.4947 234.884 34.0038L236.376 35.6337C236.576 35.5046 236.792 35.4029 237.024 35.3384V33.0364ZM237.024 42.9714V40.662C236.798 40.5974 236.584 40.5064 236.387 40.3784L234.897 42.0082C235.508 42.512 236.229 42.8507 237.024 42.9714ZM233.988 41.0409L235.491 39.3994C235.375 39.1845 235.278 38.9548 235.218 38.7061H233.113C233.225 39.575 233.524 40.3752 233.988 41.0409ZM235.217 37.3218C235.275 37.072 235.365 36.836 235.482 36.618L233.987 34.9849C233.524 35.6548 233.22 36.4486 233.111 37.3218H235.217Z" fill="#0F0F0F"/>
<path d="M176.984 29.9989C181.03 29.9989 184.31 33.5794 184.31 38.0002C184.31 38.3431 184.285 38.6786 184.247 39.0067C183.793 42.9534 180.717 46.0036 176.986 46.0036C173.151 46.0036 170.009 42.784 169.69 38.6839C169.673 38.4574 169.66 38.2309 169.66 38.0002C169.658 33.5794 172.937 29.9989 176.984 29.9989ZM180.654 34.9849L179.159 36.618C179.275 36.836 179.366 37.072 179.423 37.3218H181.531C181.421 36.4486 181.116 35.6548 180.654 34.9849ZM181.538 38.7061H179.416C179.356 38.9527 179.268 39.1866 179.152 39.4004L180.649 41.0367C181.111 40.3709 181.426 39.575 181.538 38.7061ZM177.618 42.9714C178.411 42.8528 179.133 42.512 179.742 42.0104L178.253 40.3826C178.058 40.5075 177.842 40.5996 177.618 40.6641V42.9714ZM177.618 35.3384C177.848 35.404 178.065 35.5046 178.267 35.6337L179.76 34.0027C179.145 33.4947 178.418 33.156 177.619 33.0364L177.618 35.3384ZM176.349 33.0364C175.551 33.156 174.822 33.4947 174.209 34.0038L175.702 35.6337C175.902 35.5046 176.12 35.4029 176.349 35.3384V33.0364ZM176.349 42.9714V40.662C176.125 40.5974 175.909 40.5064 175.715 40.3784L174.224 42.0082C174.834 42.512 175.557 42.8507 176.349 42.9714ZM173.315 41.0409L174.817 39.3994C174.701 39.1845 174.604 38.9548 174.545 38.7061H172.439C172.551 39.575 172.851 40.3752 173.315 41.0409ZM174.544 37.3218C174.602 37.072 174.691 36.836 174.808 36.618L173.314 34.9849C172.85 35.6548 172.546 36.4486 172.436 37.3218H174.544Z" fill="#0F0F0F"/>
<path d="M157.902 24.3911C157.956 22.6236 157.608 18.7847 158.405 17.2468L162.414 7.63191C162.666 7.13731 160.351 6.0382 160.251 5.97714C159.731 5.58546 159.785 5.62907 160.351 5.36543C162.233 4.49005 167.345 4.62514 168.668 4.5521C177.673 4.44212 205.494 3.89251 213.12 5.7242C221.14 6.36552 238.749 18.4024 238.749 18.4024C238.749 18.4024 242.135 18.6844 246.098 21.5333C250.974 22.6873 250.466 23.877 252.03 28.277C252.03 28.277 253.753 29.3555 253.992 31.5072C254.115 32.6142 253.519 37.6554 253.188 39.0641C252.824 40.6051 251.054 40.6881 249.615 40.9326H246.043C246.147 40.5188 245.993 41.2566 246.043 40.8227C246.087 40.448 245.691 35.8847 245.691 35.492C244.937 29.8865 240.761 28.8661 236.736 28.9523C231.605 29.0622 229.66 32.7442 229.391 37.7452C229.341 38.6794 229.291 39.5038 229.291 40.3757H228.374L185.543 40.4769C185.602 40.1932 185.513 38.1138 185.342 36.9047C184.889 33.7173 183.933 32.9559 183.933 32.5632C181.648 29.7766 180.648 29.221 176.034 29.3208C170.953 29.4308 168.689 34.7615 168.689 36.9047C168.689 37.1683 168.669 37.5536 168.689 37.8098C168.702 37.9791 168.669 40.3096 168.689 40.4769L160.69 39.2129C160.367 39.1407 159.734 39.6525 159.734 39.6525C159.734 39.6525 158.376 39.3228 158.275 39.103C158.273 38.926 158.477 38.8282 158.376 38.6633C157.973 38.6084 157.621 38.6084 157.621 38.6084C157.621 38.6084 156.963 38.0294 156.967 37.5093C156.971 37.0317 157.336 36.6883 157.47 36.1354C156.967 35.8606 156.957 34.2444 156.967 33.9371C156.967 33.9371 156.771 30.5869 156.967 28.4578C157.169 26.2638 157.902 24.3911 157.902 24.3911ZM184.072 8.0166L181.647 15.6005C181.381 16.6972 181.381 16.6972 182.538 16.6972H198.2C199.977 16.5985 202.275 13.18 204.554 10.6521C207.089 7.41442 205.901 7.41442 204.69 7.41442C200.003 7.41442 190.257 7.41442 184.902 7.41442C184.299 7.41209 184.299 7.41442 184.072 8.0166ZM228.922 18.21C228.923 18.8429 228.923 18.733 229.588 18.7442L231.555 18.7855C232.251 18.7855 233.702 18.7879 233.702 18.7879C234.507 18.7879 234.205 18.5681 233.803 18.2384C233.803 18.2384 232.437 17.1164 232.178 16.908C231.345 16.2432 230.346 15.4638 229.238 14.6361C228.813 14.319 228.787 14.2815 228.813 15.0248C228.843 15.8941 228.922 18.21 228.922 18.21ZM227.299 18.1284L227.235 14.5424C227.162 13.828 227.162 13.8173 226.81 13.5671C223.577 11.2708 219.286 9.10167 216.211 8.01418C214.964 7.57404 212.507 7.5917 209.755 7.48223C208.397 7.48223 208.397 7.48223 208.137 8.95085C208.137 8.95085 207.5 13.3473 207.193 15.3807C206.887 17.414 206.837 17.3591 208.346 17.4489C209.708 17.53 224.068 18.3293 226.86 18.4846C227.299 18.509 227.313 18.5131 227.299 18.1284ZM165.107 16.0867C165.401 16.6446 165.382 16.6446 166.389 16.6446L178.614 16.695C179.117 16.6972 179.117 16.695 179.28 16.2599L182.06 7.9858C182.286 7.42906 182.286 7.35713 181.783 7.35713C177.104 7.35713 171.191 7.29992 169.251 7.41442C168.322 7.4684 167.484 8.05368 167.051 8.95329L165.058 13.0841C164.577 14.2266 164.829 15.5591 165.107 16.0867Z" fill="black"/>
<path d="M42.8738 15.3239L42.8581 6.69687L39.2329 13.8365H38.3187L34.6936 6.80842V15.3239H32.7549V2.30896H34.4414L38.8073 10.9174L43.126 2.30896H44.7967L44.8282 15.3239H42.8738ZM47.6951 5.39537H49.6653V11.94L54.315 5.39537H56.1119V15.3239H54.1416V8.77926L49.5077 15.3239H47.6951V5.39537ZM58.7622 5.39537H60.7324V9.43001H64.9723V5.39537H66.9425V15.3239H64.9723V11.4008H60.7324V15.3239H58.7622V5.39537ZM69.5829 5.39537H71.5531V11.94L76.2028 5.39537H77.9996V15.3239H76.0294V8.77926L71.3955 15.3239H69.5829V5.39537ZM86.7497 10.1551C87.79 10.527 88.3101 11.3203 88.3101 12.535C88.3101 13.4275 88.0264 14.1154 87.459 14.5988C86.8916 15.0822 86.0509 15.3239 84.9371 15.3239H80.65V5.39537H84.7637C85.7935 5.39537 86.5973 5.61848 87.1753 6.06471C87.7532 6.51094 88.0422 7.14309 88.0422 7.96118C88.0422 8.46938 87.9266 8.90941 87.6954 9.28127C87.4747 9.65312 87.1595 9.94441 86.7497 10.1551ZM82.5256 9.54157H84.5904C85.6096 9.54157 86.1192 9.12633 86.1192 8.29585C86.1192 7.49016 85.6096 7.08732 84.5904 7.08732H82.5256V9.54157ZM84.7795 13.632C85.8618 13.632 86.4029 13.2167 86.4029 12.3863C86.4029 11.9524 86.2769 11.6302 86.0247 11.4194C85.7725 11.1963 85.3784 11.0848 84.8425 11.0848H82.5256V13.632H84.7795ZM93.0251 5.24663C93.9077 5.24663 94.701 5.46974 95.4051 5.91597C96.1091 6.3498 96.6607 6.95717 97.06 7.73806C97.4593 8.50657 97.659 9.38043 97.659 10.3597C97.659 11.3389 97.4593 12.2189 97.06 12.9998C96.6607 13.7807 96.1091 14.3943 95.4051 14.8405C94.701 15.2744 93.9077 15.4913 93.0251 15.4913C92.258 15.4913 91.5645 15.3425 90.9445 15.045C90.3246 14.7476 89.7992 14.3199 89.3684 13.7621L90.5032 12.4606C91.1652 13.2415 91.9795 13.632 92.9463 13.632C93.6608 13.632 94.2702 13.4089 94.7746 12.9626C95.2895 12.504 95.6205 11.8967 95.7676 11.1405H91.8745V9.4672H95.7518C95.5942 8.73588 95.2632 8.1595 94.7588 7.73806C94.2545 7.30423 93.6503 7.08732 92.9463 7.08732C91.9795 7.08732 91.1652 7.48396 90.5032 8.27726L89.3684 6.97576C89.7887 6.40558 90.3088 5.97794 90.9288 5.69285C91.5592 5.39537 92.258 5.24663 93.0251 5.24663ZM99.5669 5.39537H101.537V9.43001H105.777V5.39537H107.747V15.3239H105.777V11.4008H101.537V15.3239H99.5669V5.39537Z" fill="#AA6600"/>
<g clip-path="url(#clip0)">
<path d="M126.085 13.6262C128.305 13.6262 130.3 14.0607 132.07 14.9295C133.84 15.7663 135.224 16.973 136.221 18.5499C137.219 20.1267 137.718 21.9449 137.718 24.0045C137.718 26.1928 137.171 28.1236 136.077 29.797C134.982 31.4382 133.502 32.7094 131.636 33.6104C129.769 34.5114 127.677 34.962 125.36 34.962C120.726 34.962 117.122 33.5138 114.548 30.6176C112.006 27.7213 110.734 23.57 110.734 18.1637C110.734 14.3664 111.426 11.1323 112.81 8.46124C114.194 5.75807 116.125 3.71459 118.603 2.33083C121.113 0.914881 124.009 0.206909 127.291 0.206909C129.029 0.206909 130.654 0.399993 132.167 0.786161C133.711 1.14015 135.047 1.67112 136.173 2.3791L133.856 7.10965C132.183 6.01551 130.043 5.46844 127.436 5.46844C124.186 5.46844 121.644 6.46604 119.809 8.46124C117.975 10.4565 117.058 13.3366 117.058 17.1017V17.15C118.055 15.9915 119.327 15.1226 120.871 14.5434C122.416 13.932 124.154 13.6262 126.085 13.6262ZM125.023 30.0383C126.986 30.0383 128.578 29.5235 129.801 28.4937C131.024 27.4317 131.636 26.0319 131.636 24.2941C131.636 22.5242 131.024 21.1243 129.801 20.0945C128.578 19.0647 126.937 18.5499 124.878 18.5499C122.85 18.5499 121.193 19.097 119.906 20.1911C118.651 21.2852 118.023 22.669 118.023 24.3424C118.023 25.9836 118.635 27.3513 119.858 28.4454C121.113 29.5074 122.834 30.0383 125.023 30.0383ZM152.68 0.689617V34.4793H146.404V5.95115H139.26V0.689617H152.68Z" fill="#AA6600"/>
</g>
<defs>
<clipPath id="clip0">
<rect width="43.099" height="35.3412" fill="white" transform="translate(110.334)"/>
</clipPath>
</defs>
</svg>
