<svg width="21" height="20" viewBox="0 0 21 20" fill="none" xmlns="http://www.w3.org/2000/svg">
<g clip-path="url(#clip0)">
<path d="M14.601 0H5.42606C2.44 0 0.0107422 2.42858 0.0107422 5.41381V14.5863C0.0107422 17.5714 2.44 20 5.42606 20H14.6011C17.587 20 20.0163 17.5714 20.0163 14.5863V5.41381C20.0163 2.42858 17.587 0 14.601 0V0ZM18.8435 14.5863C18.8435 16.9249 16.9403 18.8275 14.601 18.8275H5.42606C3.0867 18.8275 1.18355 16.9249 1.18355 14.5863V5.41381C1.18355 3.0751 3.0867 1.17248 5.42606 1.17248H14.6011C16.9403 1.17248 18.8435 3.0751 18.8435 5.41381V14.5863Z" fill="white"/>
<path d="M10.0131 4.53137C6.9968 4.53137 4.54297 6.98452 4.54297 9.99996C4.54297 13.0154 6.9968 15.4685 10.0131 15.4685C13.0294 15.4685 15.4832 13.0154 15.4832 9.99996C15.4832 6.98452 13.0294 4.53137 10.0131 4.53137ZM10.0131 14.2961C7.64365 14.2961 5.71578 12.3689 5.71578 9.99996C5.71578 7.63119 7.64365 5.70386 10.0131 5.70386C12.3827 5.70386 14.3104 7.63119 14.3104 9.99996C14.3104 12.3689 12.3827 14.2961 10.0131 14.2961Z" fill="white"/>
<path d="M15.6139 2.58923C14.7228 2.58923 13.998 3.31418 13.998 4.20514C13.998 5.09625 14.7228 5.82119 15.6139 5.82119C16.5051 5.82119 17.23 5.09625 17.23 4.20514C17.23 3.31402 16.5051 2.58923 15.6139 2.58923ZM15.6139 4.64856C15.3695 4.64856 15.1705 4.44958 15.1705 4.20514C15.1705 3.96054 15.3695 3.76172 15.6139 3.76172C15.8585 3.76172 16.0575 3.96054 16.0575 4.20514C16.0575 4.44958 15.8585 4.64856 15.6139 4.64856Z" fill="white"/>
</g>
<defs>
<clipPath id="clip0">
<rect width="20.0056" height="20" fill="white" transform="translate(0.0107422)"/>
</clipPath>
</defs>
</svg>
