<svg width="21" height="20" viewBox="0 0 21 20" fill="none" xmlns="http://www.w3.org/2000/svg">
<path d="M10.0258 0C7.26754 0 5.02441 2.2425 5.02441 5C5.02441 7.7575 7.26754 10 10.0258 10C12.7841 10 15.0272 7.7575 15.0272 5C15.0272 2.2425 12.7841 0 10.0258 0ZM10.0258 8.75C7.95773 8.75 6.27476 7.0675 6.27476 5C6.27476 2.9325 7.95773 1.25 10.0258 1.25C12.0939 1.25 13.7768 2.9325 13.7768 5C13.7768 7.0675 12.0939 8.75 10.0258 8.75Z" fill="white"/>
<path d="M14.915 19.0162L10.5387 12.7662C10.3062 12.4337 9.74977 12.4337 9.5147 12.7662L5.13848 19.0162C4.94092 19.2987 5.00844 19.6887 5.29227 19.8862C5.57485 20.085 5.96496 20.0162 6.16252 19.7337L10.0261 14.215L13.8909 19.7337C14.0122 19.9075 14.206 20 14.4023 20C14.5274 20 14.6511 19.9637 14.7624 19.8862C15.045 19.6887 15.1138 19.3 14.915 19.0162Z" fill="white"/>
<path d="M16.2134 10.3024C15.9696 10.0587 15.5732 10.0587 15.3294 10.3024C12.4023 13.2274 7.64475 13.2274 4.72018 10.3024C4.47636 10.0587 4.08 10.0587 3.83618 10.3024C3.59237 10.5462 3.59237 10.9424 3.83618 11.1862C5.54291 12.8912 7.78479 13.745 10.0254 13.745C12.266 13.745 14.5079 12.8912 16.2134 11.1862C16.4572 10.9424 16.4572 10.5462 16.2134 10.3024Z" fill="white"/>
</svg>
