<svg width="16" height="15" viewBox="0 0 16 15" fill="none" xmlns="http://www.w3.org/2000/svg">
<g clip-path="url(#clip0)">
<path d="M7.5196 0C5.4509 0 3.76855 1.68187 3.76855 3.75C3.76855 5.81813 5.4509 7.5 7.5196 7.5C9.58829 7.5 11.2706 5.81813 11.2706 3.75C11.2706 1.68187 9.58829 0 7.5196 0ZM7.5196 6.5625C5.96854 6.5625 4.70632 5.30062 4.70632 3.75C4.70632 2.19937 5.96854 0.9375 7.5196 0.9375C9.07065 0.9375 10.3329 2.19937 10.3329 3.75C10.3329 5.30062 9.07065 6.5625 7.5196 6.5625Z" fill="#BDBDBD"/>
<path d="M11.1857 14.2622L7.90356 9.57473C7.72914 9.32535 7.31184 9.32535 7.13554 9.57473L3.85337 14.2622C3.7052 14.4741 3.75584 14.7666 3.96872 14.9147C4.18065 15.0638 4.47323 15.0122 4.6214 14.8004L7.51908 10.6613L10.4177 14.8004C10.5087 14.9307 10.654 15 10.8012 15C10.895 15 10.9879 14.9729 11.0713 14.9147C11.2833 14.7666 11.3348 14.475 11.1857 14.2622Z" fill="#BDBDBD"/>
<path d="M12.1603 7.72683C11.9774 7.54402 11.6802 7.54402 11.4973 7.72683C9.30199 9.92059 5.7338 9.92059 3.54038 7.72683C3.35752 7.54402 3.06025 7.54402 2.87738 7.72683C2.69452 7.90964 2.69452 8.20683 2.87738 8.38965C4.15743 9.6684 5.83883 10.3087 7.5193 10.3087C9.19977 10.3087 10.8812 9.6684 12.1603 8.38965C12.3432 8.20683 12.3432 7.90964 12.1603 7.72683Z" fill="#BDBDBD"/>
</g>
<defs>
<clipPath id="clip0">
<rect width="15.0042" height="15" fill="white" transform="translate(0.0166016)"/>
</clipPath>
</defs>
</svg>
