<svg width="12" height="12" viewBox="0 0 12 12" fill="none" xmlns="http://www.w3.org/2000/svg">
<path d="M2.43175 7.97679C3.61982 9.39163 5.05 10.5056 6.68236 11.2938C7.30385 11.5872 8.13501 11.9353 9.06101 11.995C9.11841 11.9975 9.17333 12 9.23073 12C9.85223 12 10.3514 11.7862 10.7583 11.346C10.7608 11.3436 10.7657 11.3386 10.7682 11.3336C10.913 11.1596 11.0777 11.0029 11.25 10.8363C11.3673 10.7244 11.4871 10.6075 11.6019 10.4882C12.1335 9.93618 12.1335 9.23498 11.5969 8.70037L10.0968 7.20597C9.84224 6.94239 9.53774 6.80315 9.21825 6.80315C8.89877 6.80315 8.59177 6.9424 8.32969 7.20348L7.43614 8.09366C7.35377 8.04642 7.26891 8.00414 7.18904 7.96436C7.0892 7.91463 6.99685 7.86738 6.91448 7.81517C6.1008 7.30046 5.362 6.62909 4.65564 5.76627C4.29872 5.3162 4.05911 4.93825 3.89188 4.55284C4.1265 4.34148 4.34615 4.12018 4.5583 3.90385C4.63318 3.82677 4.71056 3.74969 4.78793 3.67261C5.05749 3.40406 5.20226 3.09324 5.20226 2.77746C5.20226 2.46167 5.05999 2.15085 4.78793 1.8823L4.04413 1.14132C3.95678 1.05429 3.87441 0.969747 3.78955 0.882719C3.62481 0.713634 3.45259 0.539577 3.28287 0.382926C3.02578 0.131786 2.72377 0 2.40429 0C2.0873 0 1.7828 0.131786 1.51573 0.385412L0.582242 1.31538C0.242792 1.65354 0.0506028 2.06382 0.0106675 2.53875C-0.0367557 3.13303 0.0730665 3.76461 0.357606 4.52797C0.794398 5.70908 1.45333 6.80564 2.43175 7.97679ZM0.619681 2.59097C0.649633 2.26026 0.776926 1.98425 1.01654 1.74554L1.94503 0.820555C2.0898 0.68131 2.24954 0.6092 2.40429 0.6092C2.55654 0.6092 2.71129 0.68131 2.85356 0.825528C3.02079 0.979693 3.17804 1.14132 3.34776 1.31289C3.43262 1.39992 3.51998 1.48695 3.60734 1.57646L4.35114 2.31745C4.50589 2.47161 4.58576 2.62826 4.58576 2.78243C4.58576 2.93659 4.50589 3.09325 4.35114 3.24741C4.27376 3.32449 4.19639 3.40406 4.11901 3.48114C3.88689 3.71488 3.66974 3.93618 3.43013 4.14753C3.42514 4.15251 3.42264 4.15499 3.41765 4.15997C3.21048 4.36635 3.24293 4.56278 3.29285 4.71198C3.29535 4.71944 3.29784 4.72441 3.30034 4.73187C3.49253 5.19188 3.7596 5.62951 4.17642 6.15168C4.92521 7.07169 5.71393 7.78533 6.58252 8.33485C6.68985 8.40448 6.80466 8.45918 6.91199 8.51388C7.01183 8.56361 7.10418 8.61086 7.18654 8.66307C7.19653 8.66805 7.20402 8.67302 7.214 8.67799C7.29637 8.72027 7.37624 8.74016 7.45611 8.74016C7.65578 8.74016 7.78557 8.61334 7.828 8.57107L8.76149 7.64111C8.90626 7.49689 9.0635 7.41981 9.21825 7.41981C9.40795 7.41981 9.5627 7.53668 9.66004 7.64111L11.1651 9.138C11.4646 9.43639 11.4621 9.75964 11.1576 10.0754C11.0528 10.1873 10.943 10.2942 10.8257 10.4061C10.6509 10.5752 10.4687 10.7493 10.304 10.9457C10.017 11.254 9.67501 11.3983 9.23323 11.3983C9.1908 11.3983 9.14587 11.3958 9.10344 11.3933C8.28477 11.3411 7.5235 11.0228 6.95192 10.7518C5.39944 10.0033 4.03665 8.94157 2.90598 7.59387C1.97499 6.47741 1.3485 5.43804 0.934172 4.32408C0.677088 3.64028 0.579746 3.09076 0.619681 2.59097Z" fill="white"/>
</svg>
