<svg width="30" height="20" viewBox="0 0 30 20" fill="none" xmlns="http://www.w3.org/2000/svg">
<path d="M29.9955 18.4096C29.9932 18.3444 29.9909 18.2789 29.9886 18.2131C29.9863 18.1474 29.9838 18.0814 29.9814 18.0152L29.9795 17.9656L29.9785 17.9407L29.9783 17.9345L29.9777 17.8789L29.9775 17.8764L29.9767 17.8661L29.9703 17.7837C29.9618 17.6739 29.9532 17.5635 29.9447 17.4532L29.9381 17.3697L29.9283 17.2614C29.9215 17.1893 29.9147 17.1173 29.9079 17.0455C29.9008 16.9738 29.8938 16.9021 29.8867 16.8308C29.8831 16.7951 29.8795 16.7595 29.8759 16.724C29.8716 16.6911 29.8672 16.6583 29.8628 16.6255C29.8269 16.3652 29.7948 16.1094 29.7489 15.8635C29.7272 15.7405 29.7072 15.6195 29.6848 15.5016C29.6602 15.384 29.6362 15.269 29.6129 15.157C29.5686 14.9328 29.513 14.7235 29.4661 14.53C29.4541 14.4817 29.4424 14.4343 29.4309 14.3881C29.4181 14.3421 29.4056 14.2973 29.3935 14.2535C29.3688 14.1661 29.3454 14.0832 29.3233 14.0054C29.3009 13.9277 29.2811 13.8547 29.2605 13.7879C29.2392 13.7212 29.2197 13.6599 29.202 13.6046C29.1759 13.5233 29.1538 13.4549 29.1364 13.4008C29.1107 13.3209 29.0263 13.276 28.9456 13.299L23.8735 14.7444C23.7962 14.7664 23.7483 14.8434 23.7631 14.9224C23.7685 14.9519 23.7748 14.9857 23.7818 15.0235C23.7891 15.0615 23.7971 15.1037 23.8058 15.1496C23.8141 15.1956 23.8205 15.246 23.8288 15.2993C23.837 15.3526 23.8456 15.4094 23.8548 15.4693C23.8592 15.4992 23.8645 15.5297 23.8686 15.5612C23.8722 15.5928 23.8759 15.6251 23.8797 15.6581C23.8938 15.7902 23.9149 15.9319 23.9243 16.0838C23.9305 16.1594 23.937 16.237 23.9435 16.3163C23.9485 16.3958 23.9509 16.4772 23.9552 16.5597C23.9661 16.7243 23.9641 16.8957 23.9672 17.0686L23.9679 17.133L23.9657 17.19C23.9644 17.228 23.963 17.266 23.9617 17.3042C23.9607 17.3422 23.9597 17.3803 23.9587 17.4185L23.9575 17.4756L23.954 17.5577C23.9493 17.6683 23.9445 17.7788 23.9398 17.889L23.9363 17.9715L23.9359 17.9818L23.9358 17.9843C23.9358 17.9967 23.9348 17.8861 23.9351 17.9339L23.9347 17.9379L23.9332 17.9542L23.9302 17.9868C23.9263 18.0301 23.9224 18.0733 23.9185 18.1163C23.9147 18.1592 23.911 18.2021 23.9073 18.2446C23.9022 18.287 23.8972 18.3292 23.8921 18.371C23.8814 18.4547 23.8747 18.5376 23.8614 18.6184C23.8497 18.6992 23.8382 18.7785 23.827 18.8563C23.8135 18.9335 23.8004 19.0091 23.7877 19.0826C23.7761 19.1562 23.7606 19.2271 23.7469 19.2956C23.7325 19.3641 23.721 19.4306 23.7061 19.4937C23.6915 19.5568 23.6775 19.6172 23.6642 19.6746C23.6577 19.703 23.6513 19.7306 23.6451 19.7575C23.6387 19.7806 23.6326 19.8029 23.6265 19.8246C23.623 19.8379 23.6197 19.8503 23.6162 19.8632H29.8196C29.9028 19.8632 29.972 19.7979 29.9752 19.7149C29.9752 19.7144 29.9752 19.7139 29.9752 19.7134C29.9804 19.5979 29.9857 19.4792 29.9911 19.358C29.9934 19.2368 29.9958 19.1131 29.9982 18.9872C30.0017 18.8614 29.9979 18.7336 29.9976 18.6044C29.9968 18.5398 29.9962 18.4749 29.9955 18.4096Z" fill="white"/>
<path d="M28.3826 11.8987C28.4658 11.8652 28.5038 11.7688 28.4654 11.6878C28.4483 11.6517 28.4284 11.6096 28.4058 11.562C28.3845 11.5172 28.361 11.4676 28.3354 11.4136C28.3022 11.3462 28.2664 11.2732 28.2281 11.1952C28.1895 11.1176 28.1485 11.0349 28.1052 10.9479C28.0832 10.9026 28.0617 10.8652 28.0391 10.8227C28.0166 10.7811 27.9936 10.7386 27.9701 10.6952C27.9228 10.6086 27.8744 10.518 27.8226 10.4252C27.769 10.3334 27.7136 10.2385 27.6566 10.1409C27.6281 10.0923 27.5991 10.0429 27.5698 9.993C27.5392 9.94386 27.5081 9.89413 27.4768 9.84385C27.4137 9.74372 27.3493 9.64137 27.2838 9.53735C27.1455 9.33366 27.008 9.12063 26.8544 8.91332C26.8167 8.86112 26.7788 8.80873 26.7408 8.75618L26.6836 8.67742L26.6241 8.59996C26.5445 8.49692 26.4646 8.39353 26.3847 8.29011C26.3034 8.18789 26.2193 8.08781 26.1368 7.98736C26.0952 7.93747 26.0548 7.88685 26.0122 7.83809C25.9696 7.78949 25.9271 7.74101 25.8847 7.69273C25.8422 7.64464 25.8 7.59664 25.758 7.54892C25.7162 7.50102 25.6741 7.45393 25.6306 7.40839C25.5446 7.31678 25.4597 7.22631 25.3761 7.13729C25.2924 7.04855 25.2058 6.96515 25.1233 6.88179C25.0403 6.79886 24.9596 6.71742 24.8771 6.64179C24.7956 6.56549 24.7163 6.49128 24.6396 6.41947C24.5633 6.3475 24.4853 6.28213 24.4127 6.2174C24.3394 6.15336 24.2692 6.092 24.2025 6.03364C24.134 5.97721 24.0691 5.92371 24.0081 5.87344C23.947 5.82336 23.8899 5.77649 23.837 5.73317C23.7841 5.69 23.7335 5.65258 23.6889 5.61768C23.6239 5.56782 23.569 5.52569 23.5254 5.49222C23.4589 5.44119 23.3641 5.45208 23.3107 5.51673L20.5885 8.81185C20.5372 8.874 20.5415 8.96482 20.5988 9.02154C20.6216 9.04402 20.6478 9.07004 20.6774 9.09932C20.7057 9.12777 20.7382 9.1579 20.7715 9.19308C20.8048 9.22822 20.8407 9.26627 20.8791 9.30688C20.9176 9.34731 20.9585 9.39032 21.0016 9.43566C21.0432 9.48246 21.087 9.53176 21.1326 9.58314C21.1777 9.63499 21.2269 9.68646 21.2738 9.74387C21.3211 9.80072 21.3699 9.85945 21.4202 9.91986C21.4714 9.97917 21.5202 10.0436 21.5708 10.1086C21.6209 10.1741 21.6744 10.2387 21.7246 10.3079C21.775 10.377 21.8261 10.4471 21.8778 10.5182C21.9042 10.5531 21.9293 10.5896 21.9539 10.6266C21.9789 10.6634 22.004 10.7003 22.0291 10.7373C22.0543 10.7742 22.0797 10.8113 22.105 10.8485C22.1304 10.8857 22.1536 10.9246 22.1781 10.9627C22.2261 11.0395 22.276 11.1151 22.3232 11.1925C22.3692 11.2706 22.4153 11.3487 22.4612 11.4265L22.4956 11.4845L22.5278 11.5438C22.5494 11.5831 22.5708 11.6224 22.5922 11.6615C22.6804 11.8159 22.7549 11.975 22.8329 12.1246C22.8686 12.2013 22.9037 12.2766 22.938 12.3505C22.9552 12.3872 22.9722 12.4236 22.989 12.4595C23.0046 12.4961 23.0199 12.5322 23.0351 12.5678C23.0656 12.6387 23.0952 12.7078 23.1239 12.7746C23.1504 12.8422 23.176 12.9076 23.2005 12.9703C23.2128 13.0016 23.2248 13.0323 23.2366 13.0623C23.2477 13.0915 23.2615 13.1232 23.2689 13.1475C23.2864 13.1986 23.303 13.2472 23.3186 13.2928C23.3345 13.3381 23.3494 13.3804 23.3632 13.4196C23.3813 13.4736 23.3979 13.5231 23.4129 13.5679C23.4296 13.6179 23.4443 13.6622 23.4569 13.7C23.4853 13.7851 23.5795 13.8284 23.6627 13.795L28.3826 11.8987Z" fill="white"/>
<path d="M14.5207 6.01304C14.5619 6.01866 14.6075 6.02488 14.6573 6.03167C14.7066 6.04026 14.7601 6.04958 14.8171 6.05952C14.8741 6.06931 14.9347 6.0797 14.9986 6.09069C15.0541 6.09991 15.1116 6.1133 15.1714 6.12581L16.8895 2.61163C16.8043 2.59834 16.7198 2.58514 16.637 2.57222C16.5803 2.56379 16.5245 2.55409 16.4689 2.54715C16.4133 2.54042 16.3583 2.53376 16.3041 2.52719C16.1958 2.51434 16.0905 2.5018 15.9887 2.4897C15.8865 2.48096 15.7878 2.47249 15.6931 2.46438C15.5984 2.45712 15.5081 2.44755 15.4216 2.44344C15.3352 2.43921 15.2533 2.43517 15.1764 2.43138C15.0995 2.42775 15.0275 2.42437 14.961 2.42121C14.8945 2.42014 14.8334 2.41916 14.7781 2.41827C14.7005 2.41733 14.6345 2.41654 14.5817 2.41591C14.4978 2.41489 14.4284 2.48042 14.4244 2.56417L14.2678 5.83503C14.2639 5.91562 14.322 5.98579 14.402 5.99674C14.436 6.00142 14.4757 6.00688 14.5207 6.01304Z" fill="white"/>
<path d="M19.1376 7.8141C19.1837 7.84767 19.2275 7.8795 19.2686 7.90947C19.3098 7.93896 19.3483 7.96656 19.384 7.99211C19.3994 8.00272 19.4249 8.02205 19.4457 8.03752C19.4672 8.05353 19.4876 8.06878 19.507 8.08324C19.5492 8.11479 19.5866 8.14264 19.6185 8.16649C19.6904 8.22011 19.7924 8.20198 19.8416 8.12701L22.0847 4.71032C22.1339 4.63535 22.11 4.53452 22.0322 4.4899C21.9976 4.47006 21.9572 4.44689 21.9115 4.42064C21.8905 4.40858 21.8684 4.39592 21.8451 4.38259C21.8198 4.36829 21.7934 4.35332 21.7658 4.33772C21.702 4.30254 21.633 4.26455 21.5593 4.22391C21.4855 4.18371 21.407 4.14095 21.3242 4.09582C21.2454 4.05632 21.1625 4.01479 21.076 3.97144C20.9892 3.92906 20.9006 3.88191 20.8055 3.83912C20.711 3.79579 20.6132 3.75098 20.5127 3.70491C20.4129 3.6578 20.3075 3.61501 20.2006 3.5701C20.0932 3.52614 19.9852 3.47808 19.8724 3.43567C19.8438 3.42484 19.8148 3.41388 19.786 3.40295L18.8184 7.60287C18.8719 7.63647 18.9223 7.67209 18.9719 7.70424C19.0297 7.74254 19.0849 7.7792 19.1376 7.8141Z" fill="white"/>
<path d="M11.5085 5.99597C11.5518 5.99026 11.5943 5.98318 11.6368 5.9787C11.6793 5.9744 11.7212 5.97014 11.7626 5.96591C11.8452 5.95735 11.9255 5.94901 12.0032 5.94093C12.0811 5.93572 12.1565 5.93067 12.2287 5.9258C12.2648 5.92334 12.3001 5.92094 12.3346 5.91857C12.3691 5.91627 12.4035 5.91333 12.4331 5.9133C12.494 5.91169 12.5518 5.9102 12.6061 5.90878C12.6602 5.90708 12.7108 5.90547 12.7577 5.90398C12.8154 5.9036 12.8685 5.90326 12.9164 5.90294C12.9691 5.90266 13.0157 5.9024 13.0556 5.90218C13.1453 5.90171 13.2157 5.82576 13.2099 5.73627L13.008 2.65512C13.002 2.56562 12.9223 2.49953 12.8333 2.51077C12.7938 2.51576 12.7476 2.5216 12.6952 2.5282C12.6467 2.53436 12.593 2.54121 12.5345 2.54866C12.4654 2.55893 12.3907 2.56998 12.3108 2.58182C12.2312 2.59395 12.1465 2.60686 12.0571 2.62047C12.0114 2.62692 11.9693 2.63547 11.9251 2.64381C11.8811 2.65221 11.836 2.66083 11.79 2.66961C11.6982 2.68736 11.6025 2.70586 11.5034 2.725C11.4051 2.74739 11.3034 2.77057 11.1989 2.79435C11.1468 2.80632 11.0939 2.81847 11.0404 2.83079C10.987 2.84329 10.9334 2.85858 10.8791 2.87263C10.7706 2.90153 10.6598 2.93105 10.5472 2.96105C10.4356 2.99468 10.3222 3.02885 10.2075 3.06346C10.1503 3.08118 10.0924 3.09788 10.035 3.1168C9.97774 3.13635 9.92011 3.15596 9.86232 3.17569C9.80462 3.19546 9.74671 3.21529 9.68863 3.23522C9.63053 3.25499 9.57233 3.27485 9.51492 3.29749C9.39981 3.34142 9.28427 3.38554 9.16872 3.42965C9.05368 3.47468 8.94053 3.52458 8.82713 3.57179C8.7706 3.59588 8.71392 3.61912 8.65806 3.64385C8.60257 3.66946 8.54728 3.69498 8.49217 3.72043C8.4372 3.74588 8.38241 3.77127 8.32793 3.7965C8.27346 3.8217 8.21921 3.84652 8.16647 3.8739C8.06062 3.92733 7.95606 3.98013 7.85324 4.03205C7.75039 4.08362 7.65237 4.14052 7.55501 4.19291C7.45809 4.24628 7.36279 4.29719 7.27288 4.35204C7.18247 4.40566 7.09452 4.45786 7.00945 4.50832C6.92412 4.55809 6.84499 4.61184 6.76743 4.66041C6.69041 4.70976 6.61661 4.7571 6.54641 4.8021C6.47773 4.84925 6.41255 4.89396 6.35132 4.936C6.29024 4.97806 6.23308 5.01741 6.18022 5.05382C6.12742 5.09023 6.08072 5.12632 6.03767 5.15752C5.97935 5.20059 5.92955 5.23735 5.88925 5.2671C5.82196 5.31677 5.80617 5.41059 5.85322 5.47978L7.13264 7.36081C7.17818 7.42776 7.2672 7.44876 7.33771 7.40894C7.37021 7.39062 7.40861 7.36893 7.45241 7.34423C7.49059 7.32311 7.53189 7.29816 7.57853 7.27387C7.62514 7.24956 7.67554 7.22335 7.72939 7.19531C7.78307 7.16723 7.84023 7.13736 7.90045 7.10587C7.96171 7.07651 8.0261 7.04562 8.0933 7.01341C8.16082 6.98196 8.22931 6.94593 8.30317 6.91451C8.37647 6.88233 8.45226 6.84907 8.5302 6.81488C8.60734 6.77935 8.68907 6.74831 8.77174 6.71515C8.85486 6.68294 8.9381 6.6465 9.02529 6.61571C9.1121 6.58441 9.20039 6.55261 9.28973 6.5204C9.33404 6.50357 9.37963 6.48933 9.42533 6.47474C9.47093 6.46006 9.51678 6.44531 9.56279 6.4305C9.60871 6.41566 9.65481 6.40075 9.70105 6.38578C9.74753 6.37167 9.79468 6.35903 9.84151 6.34552C9.93558 6.3195 10.029 6.29063 10.1238 6.26644C10.2186 6.24298 10.3134 6.21952 10.4078 6.19618C10.4546 6.18371 10.5022 6.17395 10.5495 6.16419C10.5968 6.15424 10.6439 6.14433 10.6909 6.13445C10.7377 6.1245 10.7843 6.11461 10.8307 6.10476C10.8772 6.09548 10.924 6.08831 10.9701 6.08C11.0624 6.06399 11.1535 6.04814 11.2432 6.0326C11.3332 6.02019 11.4217 6.00794 11.5085 5.99597Z" fill="white"/>
<path d="M2.78378 8.42797C2.75025 8.4754 2.71658 8.52305 2.68276 8.5709C2.64904 8.61871 2.61518 8.66671 2.58121 8.71486C2.54738 8.76308 2.51574 8.81311 2.48284 8.86231C2.41797 8.96137 2.3516 9.05967 2.28806 9.15984C2.22601 9.26086 2.16395 9.36188 2.10215 9.46253L2.05605 9.53787L2.01228 9.61445C1.9832 9.66536 1.95421 9.71617 1.92531 9.76673C1.80721 9.96735 1.70461 10.1724 1.60033 10.3672C1.5518 10.4665 1.50405 10.5642 1.45731 10.6598C1.43413 10.7076 1.41118 10.7549 1.38853 10.8015C1.36722 10.8488 1.34619 10.8956 1.32541 10.9418C1.28404 11.0339 1.24381 11.1236 1.20487 11.2103C1.16856 11.2981 1.13344 11.383 1.09975 11.4644C1.06671 11.546 1.03334 11.6233 1.00488 11.6983C0.976809 11.7734 0.950157 11.8446 0.925083 11.9115C0.900136 11.9784 0.876799 12.0409 0.855231 12.0988C0.835304 12.1572 0.81702 12.2109 0.800473 12.2593C0.778999 12.3231 0.760557 12.3778 0.745494 12.4225C0.71881 12.5017 0.759389 12.5875 0.837388 12.6175L2.02823 13.074C2.10402 13.103 2.18938 13.0691 2.2244 12.9959C2.24176 12.9596 2.26251 12.9162 2.28635 12.8664C2.30612 12.8253 2.32797 12.7798 2.35182 12.7302C2.37714 12.6814 2.40452 12.6286 2.4338 12.5722C2.46297 12.516 2.49398 12.456 2.5267 12.3928C2.55967 12.3299 2.59763 12.2653 2.6353 12.1971C2.67345 12.1292 2.71321 12.0585 2.75435 11.9853C2.79771 11.9136 2.84252 11.8393 2.88863 11.7629C2.91158 11.7248 2.93486 11.6862 2.95842 11.6471C2.9832 11.6087 3.00831 11.5699 3.03367 11.5306C3.08438 11.4523 3.1362 11.3724 3.18891 11.2909C3.30089 11.1324 3.4104 10.9655 3.53416 10.8044C3.56438 10.7637 3.59473 10.7229 3.62517 10.6819L3.6708 10.6205L3.71861 10.5603C3.78228 10.4802 3.84619 10.3997 3.91011 10.3193C3.97519 10.2398 4.04274 10.1624 4.10839 10.0844C4.14168 10.0456 4.17363 10.0061 4.20771 9.96842C4.24181 9.93081 4.27579 9.8933 4.30964 9.85594C4.34343 9.81861 4.37706 9.78144 4.41054 9.74443C4.4437 9.70723 4.47717 9.6707 4.51194 9.63567C4.58034 9.56484 4.64792 9.49486 4.71439 9.42599C4.78074 9.35724 4.84999 9.29345 4.91536 9.22897C4.98123 9.16496 5.04496 9.1018 5.11058 9.04392C5.17513 8.98518 5.23791 8.92805 5.29866 8.87276C5.35892 8.81715 5.421 8.76751 5.47835 8.71767C5.53607 8.66851 5.5914 8.62139 5.64401 8.57658C5.69567 8.53569 5.74468 8.49691 5.79073 8.4604C5.83651 8.42396 5.87937 8.38982 5.919 8.35824C5.93719 8.34321 5.96182 8.32521 5.98263 8.30939C6.00398 8.29325 6.02435 8.27791 6.04367 8.26335C6.08577 8.23155 6.12294 8.20351 6.15477 8.17951C6.22636 8.12547 6.23744 8.02246 6.17921 7.95425L4.82337 6.36586C4.76514 6.29765 4.66165 6.29244 4.59707 6.35465C4.56837 6.38232 4.5348 6.41462 4.49684 6.45122C4.47941 6.46799 4.46103 6.48571 4.44177 6.50424C4.42216 6.52328 4.4035 6.54062 4.37918 6.56547C4.3327 6.61237 4.28245 6.66312 4.22874 6.71731C4.17531 6.77153 4.11843 6.82922 4.05847 6.89004C4.00273 6.95042 3.94412 7.0139 3.88298 7.08012C3.8226 7.14684 3.75749 7.21407 3.69449 7.28778C3.63124 7.36111 3.56587 7.43693 3.49864 7.51483C3.43058 7.59182 3.36474 7.67453 3.297 7.75843C3.22977 7.84278 3.15891 7.92694 3.0913 8.01612C3.02388 8.1053 2.95535 8.19596 2.88601 8.28779C2.85076 8.3333 2.81707 8.38029 2.78378 8.42797Z" fill="white"/>
<path d="M0.320684 13.9969C0.312757 14.0359 0.303473 14.0816 0.292957 14.1333C0.283326 14.1807 0.272652 14.2333 0.261031 14.2904C0.249631 14.3489 0.238484 14.418 0.226042 14.4885C0.213789 14.5597 0.200779 14.6354 0.187073 14.7152C0.180442 14.755 0.172863 14.7961 0.166579 14.8376C0.160989 14.8788 0.155305 14.9209 0.149463 14.9639C0.127231 15.1361 0.0979577 15.3214 0.0810946 15.5193C0.0713051 15.6179 0.061263 15.7192 0.0509999 15.8228C0.0425368 15.9264 0.0368841 16.0326 0.0295894 16.1402C0.0125368 16.3553 0.00941051 16.5784 0.00230526 16.804L0 16.8889L0.000410525 16.974C0.000726314 17.0309 0.0010421 17.0879 0.00135789 17.145C0.00170526 17.2021 0.00205263 17.2592 0.00236842 17.3164L0.00290526 17.4022L0.00618946 17.4881C0.0108316 17.6023 0.0154737 17.7166 0.0201157 17.8304L0.023621 17.9155L0.0246947 17.9431L0.0262105 17.9636L0.029242 18.0046C0.0332841 18.0593 0.0372947 18.1138 0.0413052 18.1682C0.0453157 18.2225 0.0493262 18.2766 0.0532736 18.3305C0.0587367 18.3866 0.0641367 18.4425 0.0695683 18.4981C0.0750314 18.5536 0.080463 18.6088 0.085863 18.6636C0.0885788 18.6909 0.0912945 18.7182 0.0940103 18.7453C0.0973893 18.772 0.100768 18.7987 0.104116 18.8252C0.117568 18.931 0.1308 19.035 0.143747 19.1369C0.159379 19.2383 0.174663 19.3376 0.189505 19.4341C0.2034 19.5307 0.221305 19.624 0.237757 19.7143C0.239115 19.7216 0.240473 19.7287 0.241799 19.7359C0.255536 19.8097 0.319768 19.8632 0.394831 19.8632H0.814546C0.904167 19.8632 0.975282 19.7877 0.970008 19.6983C0.968587 19.6744 0.967135 19.6503 0.965524 19.6259C0.960282 19.5389 0.953966 19.4492 0.951945 19.3565C0.948914 19.2641 0.945819 19.1691 0.94263 19.072C0.94203 18.975 0.94143 18.8759 0.94083 18.775C0.940672 18.7499 0.940514 18.7246 0.940356 18.6992C0.940893 18.6743 0.941461 18.6492 0.94203 18.6239C0.943135 18.5737 0.94424 18.523 0.945377 18.472C0.946482 18.4211 0.947619 18.3698 0.948756 18.3183C0.951282 18.2644 0.953777 18.2102 0.956335 18.1558C0.958861 18.1014 0.961419 18.0468 0.963945 17.992L0.965872 17.9509L0.966819 17.9303L0.966945 17.9277C0.966945 17.9211 0.967072 17.9337 0.967135 17.9316L0.967514 17.9266L0.968303 17.9167L0.974682 17.837C0.983145 17.7307 0.99164 17.6241 1.00017 17.5175L1.00667 17.4377L1.01586 17.3581C1.02199 17.3051 1.02808 17.2522 1.03418 17.1993C1.04024 17.1465 1.0463 17.0939 1.05233 17.0414L1.06133 16.9628L1.07299 16.8848C1.10495 16.6773 1.1321 16.4732 1.17189 16.2778C1.19056 16.1799 1.20726 16.0836 1.22643 15.9898C1.2473 15.8965 1.2677 15.8051 1.28757 15.7162C1.32432 15.538 1.37198 15.3724 1.41075 15.2189C1.4207 15.1806 1.43043 15.1431 1.43993 15.1064C1.44998 15.0704 1.46081 15.0362 1.47079 15.0023C1.4909 14.935 1.51001 14.8711 1.52794 14.811C1.54629 14.7504 1.56135 14.6963 1.57891 14.6419C1.59732 14.5865 1.61419 14.5357 1.62947 14.4897C1.64608 14.4396 1.66076 14.3954 1.67333 14.3575C1.7016 14.2725 1.65224 14.1813 1.56559 14.1582L0.513409 13.8776C0.426725 13.8545 0.338557 13.909 0.320684 13.9969Z" fill="white"/>
<path d="M12.2307 19.4505C12.573 19.6179 12.9356 19.6972 13.2926 19.6972C14.1888 19.6972 15.05 19.1979 15.4701 18.3386C15.551 18.1732 15.6136 17.9905 15.6544 17.8186L18.1042 7.18541L19.0371 3.13596L19.6151 0.627427C19.6824 0.33548 19.4501 0.136597 19.2171 0.136597C19.0808 0.136597 18.9441 0.204776 18.867 0.362323L17.6909 2.7681L15.9558 6.31712L11.1187 16.2111C10.5313 17.4127 11.0291 18.8631 12.2307 19.4505ZM13.3824 16.0263C14.038 16.0263 14.5694 16.5577 14.5694 17.2133C14.5694 17.8688 14.038 18.4003 13.3824 18.4003C12.7269 18.4003 12.1955 17.8688 12.1955 17.2133C12.1955 16.5576 12.7269 16.0263 13.3824 16.0263Z" fill="white"/>
</svg>
