<svg width="12" height="12" viewBox="0 0 12 12" fill="none" xmlns="http://www.w3.org/2000/svg">
<g clip-path="url(#clip0)">
<path d="M2.42432 11.7168C2.37985 11.7168 2.33539 11.703 2.29802 11.6757C2.23186 11.6276 2.19878 11.5462 2.21274 11.4657L2.87668 7.59547L0.064785 4.85489C0.00636056 4.79775 -0.0146894 4.71248 0.0104417 4.63494C0.0357876 4.55718 0.103019 4.50048 0.183997 4.48866L4.06965 3.92396L5.80757 0.402815C5.84365 0.329355 5.9184 0.282959 6.00002 0.282959C6.08186 0.282959 6.15661 0.329355 6.19248 0.402815L7.93018 3.92396L11.816 4.48866C11.897 4.50048 11.964 4.55697 11.9896 4.63494C12.0147 4.71248 11.9939 4.79797 11.9353 4.85489L9.12337 7.5959L9.78709 11.4659C9.80083 11.5464 9.76776 11.6278 9.70181 11.6759C9.63566 11.7245 9.54781 11.7307 9.47542 11.6923L6.00002 9.86522L2.5242 11.6923C2.49284 11.7086 2.45847 11.7168 2.42432 11.7168ZM0.676309 4.85102L3.2573 7.36693C3.30777 7.41611 3.33097 7.48743 3.31894 7.55702L2.70957 11.1093L5.90014 9.43219C5.96265 9.39911 6.03718 9.39911 6.10012 9.43219L9.29027 11.1093L8.6811 7.55702C8.66908 7.48743 8.69227 7.41633 8.74275 7.36693L11.3237 4.85102L7.75705 4.33272C7.68703 4.32262 7.62667 4.27859 7.59531 4.21523L6.00002 0.983408L4.40474 4.21544C4.37337 4.27881 4.31302 4.32284 4.24299 4.33294L0.676309 4.85102Z" fill="#EFCE4A"/>
<path d="M6.00011 0.293457V9.75676L2.29187 11.7062L3.00005 7.57695L0 4.65286L4.14599 4.05027L6.00011 0.293457Z" fill="#EFCE4A"/>
</g>
<g clip-path="url(#clip1)">
<path d="M6.00012 0.282837V0.983304L7.59541 4.21512C7.62677 4.27849 7.68712 4.32252 7.75715 4.33262L11.3238 4.85092L8.74285 7.36682C8.69237 7.41622 8.66917 7.48732 8.6812 7.55692L9.29036 11.1092L6.10021 9.43208C6.03728 9.399 6 9.4079 6 9.4079L6.00012 9.86511L9.47552 11.6922C9.5479 11.7306 9.63575 11.7244 9.70191 11.6758C9.76785 11.6277 9.80093 11.5463 9.78718 11.4658L9.12347 7.59579L11.9354 4.85478C11.994 4.79786 12.0148 4.71237 11.9897 4.63483C11.9641 4.55686 11.8971 4.50037 11.8161 4.48856L7.93027 3.92386L6.19257 0.402711C6.1567 0.329251 6.08195 0.282837 6.00012 0.282837Z" fill="#333333"/>
</g>
<g clip-path="url(#clip2)">
<path d="M6.00011 0.293579L7.85401 4.05039L12 4.65298L8.99994 7.57707L9.70813 11.7064L6.00011 9.75689L2.29187 11.7064L3.00006 7.57707L0 4.65298L4.14599 4.05039L6.00011 0.293579Z" fill="#EFCE4A"/>
<path d="M2.42432 11.7168C2.37985 11.7168 2.33539 11.703 2.29802 11.6757C2.23186 11.6276 2.19878 11.5462 2.21274 11.4657L2.87668 7.59547L0.064785 4.85489C0.00636056 4.79775 -0.0146894 4.71248 0.0104417 4.63494C0.0357876 4.55718 0.103019 4.50048 0.183997 4.48866L4.06965 3.92396L5.80757 0.402815C5.84365 0.329355 5.9184 0.282959 6.00002 0.282959C6.08186 0.282959 6.15661 0.329355 6.19248 0.402815L7.93018 3.92396L11.8161 4.48866C11.897 4.50048 11.964 4.55697 11.9896 4.63494C12.0147 4.71248 11.9939 4.79797 11.9353 4.85489L9.12337 7.5959L9.78709 11.4659C9.80084 11.5464 9.76776 11.6278 9.70181 11.6759C9.63566 11.7245 9.54781 11.7307 9.47542 11.6923L6.00002 9.86522L2.5242 11.6923C2.49284 11.7086 2.45847 11.7168 2.42432 11.7168ZM0.676309 4.85102L3.2573 7.36693C3.30777 7.41611 3.33097 7.48743 3.31894 7.55702L2.70957 11.1093L5.90014 9.43219C5.96265 9.39911 6.03718 9.39911 6.10012 9.43219L9.29027 11.1093L8.68111 7.55702C8.66908 7.48743 8.69227 7.41633 8.74275 7.36693L11.3237 4.85102L7.75705 4.33272C7.68703 4.32262 7.62667 4.27859 7.59531 4.21523L6.00002 0.983408L4.40474 4.21544C4.37337 4.27881 4.31302 4.32284 4.24299 4.33293L0.676309 4.85102Z" fill="#EFCE4A"/>
</g>
<defs>
<clipPath id="clip0">
<rect width="12" height="12" fill="white"/>
</clipPath>
<clipPath id="clip1">
<rect width="12" height="12" fill="white"/>
</clipPath>
<clipPath id="clip2">
<rect width="12" height="12" fill="white"/>
</clipPath>
</defs>
</svg>
