<svg width="30" height="30" viewBox="0 0 30 30" fill="none" xmlns="http://www.w3.org/2000/svg">
<path d="M13.4941 15.7947C12.919 15.7947 12.4513 16.2623 12.4513 16.8375V18.7144H11.8887V16.8375C11.8887 16.1027 12.3878 15.4659 13.0903 15.2839V12.2531C13.0903 11.6671 12.6136 11.1901 12.0277 11.1901H7.69868C7.11273 11.1901 6.63607 11.6671 6.63607 12.2531V15.2839C7.33848 15.4659 7.83757 16.1027 7.83757 16.8375V18.7144H7.27507V16.8375C7.27507 16.2623 6.80734 15.7947 6.23223 15.7947C5.65732 15.7947 5.18945 16.2623 5.18945 16.8375V19.0677C5.18945 19.6426 5.65739 20.1106 6.23223 20.1106H9.24845V21.248H8.57189C8.51093 21.248 8.45489 21.2814 8.42557 21.3349L7.73925 22.5894C7.71123 22.6407 7.71225 22.7037 7.74204 22.7542C7.77198 22.8046 7.827 22.8358 7.88557 22.8358H11.8458C11.9359 22.8338 12.0086 22.7598 12.0086 22.6691C12.0086 22.6364 11.999 22.6049 11.9812 22.5777L11.9757 22.5688L11.3008 21.3348C11.2715 21.2813 11.2154 21.248 11.1545 21.248H10.4779V20.1106H13.4941C14.069 20.1106 14.537 19.6426 14.537 19.0676V16.8374C14.537 16.2624 14.069 15.7947 13.4941 15.7947Z" fill="white"/>
<path d="M23.7676 15.7947C23.1925 15.7947 22.7249 16.2623 22.7249 16.8375V18.7144H22.1623V16.8375C22.1623 16.1027 22.6613 15.4659 23.3638 15.2839V12.2531C23.3638 11.6671 22.8871 11.1901 22.3011 11.1901H17.9723C17.3862 11.1901 16.9096 11.6671 16.9096 12.2531V15.2839C17.6121 15.4659 18.1112 16.1027 18.1112 16.8375V18.7144H17.5486V16.8375C17.5486 16.2623 17.0809 15.7947 16.5059 15.7947C15.9308 15.7947 15.4629 16.2623 15.4629 16.8375V19.0677C15.4629 19.6426 15.9308 20.1106 16.5059 20.1106H19.522V21.248H18.8454C18.7845 21.248 18.7284 21.2814 18.6991 21.3349L18.0128 22.5894C17.9848 22.6407 17.9859 22.7037 18.0158 22.7542C18.0455 22.8046 18.1006 22.8358 18.1592 22.8358H22.1193C22.2094 22.8338 22.2821 22.7598 22.2821 22.6691C22.2821 22.6364 22.2726 22.6049 22.2549 22.5777L22.2493 22.5688L21.5743 21.3348C21.5451 21.2813 21.489 21.248 21.428 21.248H20.7515V20.1106H23.7676C24.3426 20.1106 24.8105 19.6426 24.8105 19.0676V16.8374C24.8106 16.2624 24.3426 15.7947 23.7676 15.7947Z" fill="white"/>
<path d="M6.10855 12.2531C6.10855 11.376 6.82207 10.6625 7.69909 10.6625H7.90091V8.22706C7.90091 7.6409 7.42425 7.16431 6.83823 7.16431H2.50936C1.92341 7.16431 1.44655 7.6409 1.44655 8.22706V11.2578C2.14916 11.4398 2.64818 12.0765 2.64818 12.8115V14.6884H2.08561V12.8115C2.08561 12.2363 1.61795 11.7685 1.04284 11.7685C0.467932 11.7686 0 12.2364 0 12.8115V15.0417C0 15.6168 0.467932 16.0845 1.04277 16.0845H4.05893V17.2222H3.38236C3.32148 17.2222 3.26536 17.2552 3.23611 17.3088L2.5498 18.5634C2.5217 18.6145 2.5228 18.6781 2.55266 18.7281C2.58252 18.7786 2.63748 18.8101 2.69611 18.8101H4.66193V16.8374C4.66193 16.0129 5.30039 15.3352 6.10855 15.2716V12.2531Z" fill="white"/>
<path d="M16.3818 12.2531C16.3818 11.376 17.0952 10.6625 17.9723 10.6625H18.1741V8.22706C18.1741 7.6409 17.6973 7.16431 17.1114 7.16431H12.7825C12.1965 7.16431 11.7197 7.6409 11.7197 8.22706V10.6625H12.0282C12.9052 10.6625 13.6187 11.376 13.6187 12.2531V15.2717C14.2744 15.3232 14.8183 15.7791 15.0003 16.3895C15.1823 15.7792 15.7261 15.3232 16.3819 15.2717V12.2531H16.3818Z" fill="white"/>
<path d="M28.9568 11.7686C28.3816 11.7686 27.914 12.2364 27.914 12.8115V14.6885H27.3514V12.8115C27.3514 12.0765 27.8504 11.4398 28.553 11.2578V8.22706C28.553 7.6409 28.0762 7.16431 27.4903 7.16431H23.1613C22.5753 7.16431 22.0986 7.6409 22.0986 8.22706V10.6625H22.3004C23.1774 10.6625 23.891 11.376 23.891 12.2531V15.2717C24.6992 15.3353 25.3376 16.013 25.3376 16.8375V18.8102H27.3084C27.3986 18.8079 27.4712 18.734 27.4712 18.6432C27.4712 18.6108 27.4617 18.579 27.444 18.5518L27.4384 18.5428L26.7634 17.3088C26.7341 17.2552 26.6782 17.2222 26.6171 17.2222H25.9406V16.0845H28.9568C29.5317 16.0845 29.9996 15.6168 29.9996 15.0417V12.8115C29.9996 12.2364 29.5316 11.7686 28.9568 11.7686Z" fill="white"/>
</svg>
